<!-- Default SVG Logo for Admin Dashboard -->
<svg width="200" height="200" viewBox="0 0 200 200" xmlns="http://www.w3.org/2000/svg">
  <!-- Background Circle -->
  <circle cx="100" cy="100" r="95" fill="#667eea" stroke="#764ba2" stroke-width="2"/>
  
  <!-- Stars -->
  <g fill="white" opacity="0.8">
    <!-- Main central star -->
    <path d="M100 30 L105 50 L125 50 L110 65 L115 85 L100 70 L85 85 L90 65 L75 50 L95 50 Z"/>
    
    <!-- Smaller stars around -->
    <circle cx="60" cy="60" r="3"/>
    <circle cx="140" cy="60" r="2"/>
    <circle cx="170" cy="100" r="3"/>
    <circle cx="140" cy="140" r="2"/>
    <circle cx="60" cy="140" r="3"/>
    <circle cx="30" cy="100" r="2"/>
    <circle cx="80" cy="40" r="1.5"/>
    <circle cx="120" cy="40" r="1.5"/>
    <circle cx="160" cy="80" r="1.5"/>
    <circle cx="160" cy="120" r="1.5"/>
    <circle cx="120" cy="160" r="1.5"/>
    <circle cx="80" cy="160" r="1.5"/>
    <circle cx="40" cy="120" r="1.5"/>
    <circle cx="40" cy="80" r="1.5"/>
  </g>
  
  <!-- Zodiac symbols around the border -->
  <g fill="white" font-family="serif" font-size="16" text-anchor="middle">
    <text x="100" y="25" transform="rotate(0 100 25)">♈</text>
    <text x="150" y="40" transform="rotate(30 150 40)">♉</text>
    <text x="185" y="75" transform="rotate(60 185 75)">♊</text>
    <text x="190" y="110" transform="rotate(90 190 110)">♋</text>
    <text x="175" y="145" transform="rotate(120 175 145)">♌</text>
    <text x="145" y="175" transform="rotate(150 145 175)">♍</text>
    <text x="100" y="185" transform="rotate(180 100 185)">♎</text>
    <text x="55" y="175" transform="rotate(210 55 175)">♏</text>
    <text x="25" y="145" transform="rotate(240 25 145)">♐</text>
    <text x="10" y="110" transform="rotate(270 10 110)">♑</text>
    <text x="25" y="75" transform="rotate(300 25 75)">♒</text>
    <text x="55" y="40" transform="rotate(330 55 40)">♓</text>
  </g>
  
  <!-- Center text -->
  <text x="100" y="105" fill="white" font-family="Arial, sans-serif" font-size="14" font-weight="bold" text-anchor="middle">ASTRO</text>
  <text x="100" y="125" fill="white" font-family="Arial, sans-serif" font-size="14" font-weight="bold" text-anchor="middle">WAY</text>
</svg>