  <svg xmlns="http://www.w3.org/2000/svg" width="41.353" height="49.369"
                                                viewBox="0 0 41.353 49.369">
                                                <path
                                                    d="M26.759 15.895H7.39a1.246 1.246 0 1 0 0 2.492h19.369a1.246 1.246 0 1 0 0-2.492m0 5.643H7.39a1.246 1.246 0 0 0 0 2.492h19.369a1.246 1.246 0 0 0 0-2.492"
                                                    fill="#130708" />
                                                <path
                                                    d="M37.88 27.712v7.836a2.761 2.761 0 0 1-2.757 2.758H15.964a1.544 1.544 0 0 0-.955.331l-7.623 6.009v-4.8a1.543 1.543 0 0 0-1.543-1.543 2.761 2.761 0 0 1-2.758-2.758V8.4a5.213 5.213 0 0 1 4.742-5.3q.166-.011.331-.011h.034a5.083 5.083 0 0 1 5.058 5.08v3.17a1.543 1.543 0 0 0 1.543 1.543H31.88v10.384l3.086-3.086v-7.3h4.845a1.543 1.543 0 0 0 1.543-1.543V8.168A8.177 8.177 0 0 0 33.185 0H8.246c-.2 0-.412 0-.619.018A8.3 8.3 0 0 0 0 8.4v27.148a5.853 5.853 0 0 0 4.3 5.636v6.642a1.543 1.543 0 0 0 2.5 1.212l9.7-7.647h18.623a5.85 5.85 0 0 0 5.843-5.843v-10.1Z"
                                                    fill="#ee4e5e" />
                                                <path
                                                    d="M7.39 29.674h19.09l.36-1.079a1.938 1.938 0 0 1 .466-.754l.314-.314a1.241 1.241 0 0 0-.86-.346H7.39a1.246 1.246 0 0 0 0 2.492"
                                                    fill="#130708" />
                                                <path
                                                    d="M40.367 12.172a3.382 3.382 0 0 0-4.773 0l-17.9 17.9a.964.964 0 0 0-.233.377l-1.309 3.926H7.094a1.246 1.246 0 0 0 0 2.492h9.369a1.243 1.243 0 0 0 .314-.041.965.965 0 0 0 .2-.043l5.114-1.7a.963.963 0 0 0 .377-.233l17.9-17.9a3.379 3.379 0 0 0 0-4.773M21.261 33.324l-3.068 1.023 1.023-3.068.521-.521 2.045 2.046Zm14.333-14.333Zm3.409-3.409-2.045 2.045-2.045-2.045 2.046-2.045a1.446 1.446 0 0 1 2.045 2.045Z"
                                                    fill="#130708" />
                                            </svg>
