 <svg xmlns="http://www.w3.org/2000/svg" width="63.473" height="50.434"
                                                viewBox="0 0 63.473 50.434">
                                                <g transform="matrix(.996 -.087 .087 .996 0 5.207)">
                                                    <path
                                                        d="M55.434 22.714a12.3 12.3 0 0 0-1.234.232 8.1 8.1 0 0 0-1.47.508 11.89 11.89 0 0 0-2.6 1.62l-2.159 1.841c-.669.578-1.386 1.099-2.143 1.557a10.56 10.56 0 0 1-2.527 1.064l-1.171.3a.51.51 0 0 1-.488-.094l-.488-.364-2.517-1.918-4.275-3.246q-.876-.664-1.75-1.331c-.214-.164-.193-.155 0-.318.532-.462 1.143-.862 1.7-1.3l1.723-1.319 2.705-2.072 2.25-1.7a6.59 6.59 0 0 0 .717-.551c.079-.069.189-.09.287-.054a13.32 13.32 0 0 1 2.937.928 13.57 13.57 0 0 1 3.032 2.015l2.737 2.293a10.67 10.67 0 0 0 2.615 1.413 11.17 11.17 0 0 0 2.119.496zM29.883 41.786l-.3-.818a5.84 5.84 0 0 0-1.269-1.806 13.19 13.19 0 0 0-2.185-1.727 32.94 32.94 0 0 1-2.984-2.1 7.65 7.65 0 0 1-1.845-2.154c-.198-.379-.376-.768-.532-1.166-.054-.108-.014-.24.091-.3l2.285-1.724 2.2-1.689 2.145-1.61 1.695-1.312.574-.414c.088-.073.217-.07.3.009q2.419 1.852 4.849 3.7 1.986 1.51 3.976 3.016c.107.062.155.191.114.308a6.31 6.31 0 0 1-.706 1.492c-.305.477-.663.919-1.065 1.318a12.44 12.44 0 0 1-1.739 1.4l-2.683 1.822a9.3 9.3 0 0 0-1.675 1.484 4.99 4.99 0 0 0-1.153 2.089.4.4 0 0 1-.093.182zM4.379 22.699a11.08 11.08 0 0 0 2.312-.568 9.8 9.8 0 0 0 1.654-.84c.428-.259.838-.547 1.227-.863l1.3-1.1a26.3 26.3 0 0 1 2.671-2.1 12.16 12.16 0 0 1 2.485-1.2c.586-.203 1.188-.358 1.8-.463.101-.024.207 0 .287.066q4.613 3.511 9.232 7.018c.085.064.076.089 0 .146q-1.425 1.068-2.843 2.141l-2.682 2.057-1.213.927-2.437 1.841a.52.52 0 0 1-.462.1 12.36 12.36 0 0 1-3.449-1.215c-.99-.566-1.918-1.235-2.768-1.995l-2.187-1.847a11.61 11.61 0 0 0-2.818-1.567c-.657-.232-1.336-.394-2.027-.483-.027-.014-.058-.008-.082-.055zm25.54-18.981l.156.461a5.67 5.67 0 0 0 1.392 2.125c.864.804 1.805 1.52 2.81 2.139.949.593 1.849 1.26 2.694 1.994a7.59 7.59 0 0 1 1.891 2.678 4.29 4.29 0 0 0 .142.437c.046.085-.066.129-.129.18l-2.123 1.615-3.344 2.537-2.2 1.66-.474.374-.735.567c-.063.049-.151.044-.208-.012l-.557-.411-2.716-2.06-1.272-.96-2.314-1.772-1.348-1.009-.741-.577c-.062-.04-.084-.121-.051-.187a7.69 7.69 0 0 1 1.073-2.017 10.79 10.79 0 0 1 2.4-2.19l2.172-1.459a13.11 13.11 0 0 0 1.679-1.315 7.09 7.09 0 0 0 .829-.911 5.16 5.16 0 0 0 .855-1.683l.068-.2z"
                                                        fill="#ee4e5e" />
                                                    <path
                                                        d="M29.969 45.4a4.32 4.32 0 0 1-1-.142 18.39 18.39 0 0 0-3.322-.383l-4.066-.088-2.312.018-1.964.013a171.78 171.78 0 0 1-3.508-.037 40.25 40.25 0 0 1-4.709-.331c-.955-.11-1.895-.329-2.8-.652-.834-.224-1.54-.781-1.951-1.54-.034-.083-.038-.086-.146-.112-.845-.192-1.575-.721-2.022-1.463a7.84 7.84 0 0 1-1-2.752c-.253-1.477-.366-2.975-.34-4.473l.008-2.359-.016-3.58c0-1.194-.138-2.383-.411-3.545l-.031-.116a2.9 2.9 0 0 0-.272-.749.8.8 0 0 1 .013-.818 6.55 6.55 0 0 0 .509-1.912.24.24 0 0 1 .031-.086c-.003-.021-.003-.043 0-.064l.027-.3c.003-.03.011-.058.025-.085-.005-.023-.007-.047-.005-.07l.041-.506a.22.22 0 0 1 0-.027v-.122c.001-.04.012-.079.032-.113v-.01c-.002-.018-.002-.037 0-.055l.021-.63c.001-.019.004-.037.009-.055.034-.406.034-.823.034-1.227v-.545l-.026-2.82.018-2.329v-.1A49.74 49.74 0 0 1 1.997 5.01c.192-.378.452-.717.768-1a3.1 3.1 0 0 1 1.523-.758c.361-.781 1.05-1.362 1.881-1.586 1.074-.374 2.188-.618 3.319-.728A55.39 55.39 0 0 1 16.07.631l1.726.006h.02l2.812.01 2.963-.02a30.49 30.49 0 0 0 5.1-.392l.073-.014a5.33 5.33 0 0 0 .656-.149c.147-.048.3-.072.455-.072.172.003.343.028.509.075C31.406.32 32.45.468 33.5.517l4.9.124h1.065L40.874.63l1.561-.011h.5l2.981.034 3.161.16a19.62 19.62 0 0 1 3.7.592c.717.167 1.394.475 1.992.905a2.09 2.09 0 0 1 .738.954 3.14 3.14 0 0 1 2.015 1.332 6.5 6.5 0 0 1 1.03 2.562 23.95 23.95 0 0 1 .41 4.249v3.618l-.017 2.248.027.674.017.319a.23.23 0 0 1-.025.114.1.1 0 0 0 0 .1c.02.033.032.07.034.108-.004 1.189.198 2.37.596 3.49a1.4 1.4 0 0 1-.031 1.319 1.32 1.32 0 0 0-.105.3l-.051.177c-.008.023-.018.044-.032.064v.014c.003.034-.003.068-.015.1l-.033.086a2.27 2.27 0 0 0-.1.524l-.023.184c-.002.015-.006.03-.011.045a1.38 1.38 0 0 0-.085.574c.001.011.001.023 0 .034l-.012.169c-.004.046-.02.089-.048.126a.43.43 0 0 0 0 .1c0 .03.005.061.006.091a.22.22 0 0 1 0 .041l-.027.168c-.007.039-.022.075-.046.107a.48.48 0 0 0 .008.082 1.02 1.02 0 0 1 .012.114 4.95 4.95 0 0 1-.027.613 3.33 3.33 0 0 0-.01.741c.001.012.001.024 0 .036v.116c0 .05-.007.087-.011.123a1.84 1.84 0 0 0-.014.2q.006.675.015 1.35l.021 2.473-.022 2.031q-.007.449-.014.9v.078c0 .019-.003.038-.008.057l-.02.064c-.006.016-.01.032-.014.048-.028 1.141-.186 2.275-.47 3.38a4.6 4.6 0 0 1-2.233 3.251.43.43 0 0 1-.072.032l-.125.042-.04.012-.157.038-.316.075-.062.18-.039.112a.27.27 0 0 1-.061.1l-.006.006-.026.026a1.8 1.8 0 0 0-.167.177c-.065.078-.135.152-.21.222-.792.624-1.73 1.035-2.725 1.194a30.88 30.88 0 0 1-5.322.579l-.487.025-1.494.028h-.59-.74c-.545 0-1.1 0-1.633-.01-.422 0-.859-.008-1.287-.009h-.829-1.6l-5.281.166a13.21 13.21 0 0 0-2.121.308 2.38 2.38 0 0 1-.835.139zm-13.153-2.2l4.313.043.844.032.867.051 1.69.116c1.521.118 3.027.391 4.493.813l.146.051a5.37 5.37 0 0 0-.235-.618l-.05-.117a9.1 9.1 0 0 0-3.326-3.7l-1.535-1.034-1.562-1.049a16.36 16.36 0 0 1-2.556-2.141 7.77 7.77 0 0 1-1.548-2.418l-.092-.228a3.91 3.91 0 0 1-.242-.717l-1.255.944-2.921 2.2-1.685 1.28-.893.68-1 .759q-.82.622-1.638 1.245l-.987.754-2.277 1.729-.035.028c.006.009.015.021.028.037a3.06 3.06 0 0 0 1.734.857c1.232.26 2.489.39 3.748.387l2.768.031 2.148-.009h.07zm24.933-10.932c-.081.32-.181.634-.3.942-.421 1.019-1.042 1.942-1.826 2.717-1.056 1-2.21 1.891-3.445 2.658l-.38.252a25.79 25.79 0 0 0-2.829 2.054 7.42 7.42 0 0 0-2.336 3.407l1-.29a27.57 27.57 0 0 1 5.056-.673l3.816-.122 2.933-.01h2.08 1.959l1.9-.044a16.35 16.35 0 0 0 3.612-.446 2.8 2.8 0 0 0 1.447-.782l.011-.013-2.241-1.694q-.583-.443-1.164-.889l-1-.767-2.112-1.6-.541-.4-1.046-.794-.758-.588-.774-.6-1.27-.97-.6-.449-.788-.6zm-22.767-.71a.18.18 0 0 0 .014.046l.042.1a13.15 13.15 0 0 0 .6 1.315c.568.99 1.317 1.864 2.208 2.577 1.005.805 2.054 1.552 3.143 2.238l.509.335a16.89 16.89 0 0 1 2.755 2.179c.685.662 1.237 1.448 1.626 2.317l.005.012c.304-.691.715-1.33 1.22-1.892.631-.712 1.346-1.345 2.129-1.886l1.94-1.322 1.377-.931a14.84 14.84 0 0 0 2.1-1.692c.481-.478.908-1.007 1.274-1.578a7.59 7.59 0 0 0 .844-1.783c.016-.05.01-.068-.038-.1l-4.912-3.726-.133-.1-5.783-4.408-.61.443-.721.566-1.381 1.061-1.642 1.227-1 .758-1.446 1.109-1.269.977-.928.689-1.883 1.433c-.015.01-.029.022-.04.036zM1.493 23.277c.41.722.708 1.501.884 2.312.281 1.214.441 2.454.476 3.7l.029.628.036.9.013 3.44q0 .687 0 1.373c-.014.868.026 1.737.119 2.6a6.39 6.39 0 0 0 .546 2.085c.201.471.578.845 1.051 1.043l1.66-1.26q.72-.544 1.438-1.09l1.945-1.487 3.732-2.838 1.425-1.089 2.48-1.861a9.15 9.15 0 0 1-1.595-.321 13.57 13.57 0 0 1-4.318-2.007 35.84 35.84 0 0 1-3.256-2.674 15.15 15.15 0 0 0-3.848-2.6 11.63 11.63 0 0 0-2.816-.85zm40.976 8.453l.932.7q.716.542 1.429 1.087l.9.686.918.7 1.026.779.63.482.872.666.4.29.706.534.6.46.614.467.326.239a4.51 4.51 0 0 1 .447.338c.157.141.33.27.514.408l.386.3.509.379.559.418.542.42.371.283a1.67 1.67 0 0 0 .4-.222 2.92 2.92 0 0 0 .919-1.496c.23-.795.354-1.617.366-2.445l.028-1.68v-.839-1.705l.022-2.653c.014-1.588.19-3.17.524-4.722.154-.746.42-1.464.788-2.13l.109-.191c-.93.16-1.838.426-2.707.793-.83.369-1.619.822-2.356 1.352a24.13 24.13 0 0 0-2.144 1.763l-1.615 1.374c-1.029.844-2.159 1.557-3.365 2.12a14.25 14.25 0 0 1-3.65 1.045zm-11.839-9l1.972 1.5.111.085 2.566 1.943 2.558 1.94.689.522 2.337 1.784.269.2.319.239c.066.052.094.052.106.052a.3.3 0 0 0 .075-.012l.644-.161.757-.192a12.3 12.3 0 0 0 2.936-1.231c.89-.54 1.733-1.153 2.52-1.834l1.03-.888 1.569-1.329c.979-.804 2.059-1.476 3.213-2a10.06 10.06 0 0 1 1.848-.634h0a10.62 10.62 0 0 1-1.119-.334 13.22 13.22 0 0 1-3.241-1.749c-.82-.591-1.563-1.245-2.281-1.873l-1.027-.892c-1.075-.943-2.271-1.739-3.556-2.367a15.44 15.44 0 0 0-3.407-1.081 4.32 4.32 0 0 1-.555.433l-.293.211-1.659 1.26-1.046.788-2.062 1.578-1.187.91q-.346.265-.694.527l-1.37 1.053-.844.636-1.18.916zm-27.023-.018c.404.093.801.211 1.189.355 1.242.479 2.412 1.128 3.475 1.93.639.471 1.221.986 1.785 1.484l.854.744a19.19 19.19 0 0 0 3.254 2.348 14.26 14.26 0 0 0 4.005 1.412c.025.006.051.009.077.01.011 0 .035 0 .114-.056l1.5-1.132 1.417-1.073.931-.707.514-.4 1.536-1.179 1.678-1.286 3.248-2.447-10.9-8.288a13.1 13.1 0 0 0-2.063.531c-1.015.355-1.986.824-2.894 1.4-.921.621-1.8 1.302-2.63 2.04q-.266.227-.533.452-.321.27-.639.543l-.922.779a13.2 13.2 0 0 1-1.512 1.064 12.06 12.06 0 0 1-2.052 1.041c-.468.177-.947.322-1.434.435zm15.382-8.829l.42.329.451.351.1.075 1.576 1.181 1.273.972 1.6 1.226 1.383 1.047.187.139 2.271 1.719q.55.42 1.1.838l.3.224.248.181.773-.59c.1-.068.189-.145.287-.226s.191-.159.3-.235l1.733-1.3.99-.753 2.53-1.918q.807-.615 1.616-1.228l.828-.62 1.8-1.376.033-.025a1.93 1.93 0 0 1-.075-.251 1.4 1.4 0 0 0-.06-.2 9.08 9.08 0 0 0-2.275-3.224 26.3 26.3 0 0 0-3.28-2.428l-.017-.011c-1.265-.782-2.451-1.686-3.539-2.7-.693-.669-1.25-1.466-1.641-2.346-.222.514-.506 1-.844 1.446-.321.423-.678.817-1.067 1.178a16.69 16.69 0 0 1-2.128 1.666q-.4.265-.8.528l-1.887 1.275a13.3 13.3 0 0 0-2.906 2.644 9.18 9.18 0 0 0-1.282 2.412zm23.506-.184a4.08 4.08 0 0 0 .185.033c.714.1 1.417.265 2.1.493 1.314.43 2.555 1.056 3.682 1.857 1.074.778 2.054 1.636 3 2.466l.458.4a14.5 14.5 0 0 0 2.249 1.658 11.28 11.28 0 0 0 3.1 1.319l.047.011.983.219a8.6 8.6 0 0 1-.91-2.37 15.54 15.54 0 0 1-.42-2.964l-.095-2.85q-.005-.313-.014-.626a10.63 10.63 0 0 1 .013-.8l.014-.527v-.26a37.6 37.6 0 0 0-.144-4.519c-.053-.761-.248-1.505-.574-2.194-.21-.434-.563-.783-1-.987h0l-1.2.889-.824.626-1.985 1.494-.615.469-2.668 2.037q-.774.592-1.541 1.185l-1.413 1.084-1.833 1.395-.245.192a8.67 8.67 0 0 1-.35.27zM4.642 4.066c-.031.01-.06.022-.089.036a2.04 2.04 0 0 0-.978 1.048 8.1 8.1 0 0 0-.619 3.1l-.028 1.5v.851 1.7l-.043 2.849-.023.709a9.88 9.88 0 0 1-.029.8c-.061.966-.191 1.926-.389 2.873-.178.921-.502 1.808-.96 2.626.954-.158 1.886-.434 2.772-.822a14.45 14.45 0 0 0 3.183-2.029l1.175-1.015a35.1 35.1 0 0 1 1.524-1.3c.958-.791 1.997-1.478 3.1-2.05a13.52 13.52 0 0 1 2.761-.984l1.325-.254-.812-.607-.38-.276-.867-.648-.725-.553-.753-.575-.486-.374-.491-.377a23.09 23.09 0 0 0-.553-.424l-.565-.434a30.06 30.06 0 0 0-.945-.717l-.568-.424-.756-.58-.8-.616-.932-.7-1.038-.781-.023-.017-1.941-1.5a.34.34 0 0 0-.047-.035zm.7-.544c.038.04.082.074.13.1a4.23 4.23 0 0 1 .357.262l.169.131 2.346 1.754.756.594.8.627 1.072.8 1.772 1.336.965.74 1.043.8 1.28.977.842.634 1.158.881a8.38 8.38 0 0 1 .537-1.442 8.14 8.14 0 0 1 1.7-2.311c.738-.691 1.529-1.324 2.366-1.893l1.439-.964 1.56-1.053a11.47 11.47 0 0 0 2.587-2.462c.417-.58.733-1.225.935-1.91-.335.12-.676.222-1.021.307-1.616.362-3.259.584-4.913.664l-4.66.132H17.09h-2.859-.636-.776l-3.068.073a15.49 15.49 0 0 0-3.048.434 2.77 2.77 0 0 0-1.232.635c-.051.043-.093.095-.125.154zM30.624 1.13a6.6 6.6 0 0 0 .359.905 6.85 6.85 0 0 0 1.339 1.9c.393.406.813.786 1.257 1.135.67.525 1.419 1.013 2.143 1.484l1.6 1.078a15.94 15.94 0 0 1 2.509 2.1 8.03 8.03 0 0 1 1.815 3.026c.028.09.048.178.067.264l.032.139.007-.003 3.179-2.411 1.154-.877 2.034-1.544 1.46-1.108 1.177-.894 3.682-2.79.011-.009h0a3.32 3.32 0 0 0-.144-.156 3.95 3.95 0 0 0-2.112-.834 21.44 21.44 0 0 0-3.543-.286l-2.623-.028h-.719l-2.8.017a98.61 98.61 0 0 1-5.4-.126l-2.642-.205a19.31 19.31 0 0 1-3.7-.725c-.048-.024-.097-.035-.138-.052z"
                                                        fill="#130708" />
                                                </g>
                                            </svg>
