 <svg xmlns="http://www.w3.org/2000/svg" width="52" height="52"
                                                viewBox="0 0 52 52">
                                                <defs>
                                                    <clipPath id="DH">
                                                        <path fill="none" d="M0 0h52v52H0z" />
                                                    </clipPath>
                                                </defs>
                                                <g clip-path="url(#DH)">
                                                    <path
                                                        d="M27.524 0l3.559.508a25.3 25.3 0 0 1 9.732 4.123c.492.339.611.763.351 1.157s-.718.435-1.2.1c-3.099-2.179-6.674-3.585-10.427-4.1-6.896-1.074-13.917.913-19.228 5.44-4.32 3.544-7.264 8.486-8.325 13.972-2.293 11.593 4.015 23.17 15 27.528l1.092.408c.553.209.774.589.611 1.041s-.577.58-1.144.383C6.508 46.775-.649 36.095.045 24.448S9.116 3.047 20.524.6c1.122-.241 2.275-.345 3.408-.513.153-.021.295-.058.443-.087z"
                                                        fill="#130708" />
                                                    <path
                                                        d="M52 27.609l-.4 2.855a25.56 25.56 0 0 1-17.7 20.261 24.51 24.51 0 0 1-12.923.751c-.632-.124-.932-.458-.836-.924s.5-.681 1.114-.57A23.92 23.92 0 0 0 40.15 45.91a23.51 23.51 0 0 0 10.113-16.991c1.002-7.497-1.61-15.026-7.039-20.292-.107-.108-.22-.211-.322-.324-.159-.143-.252-.345-.257-.559s.078-.42.23-.571a.75.75 0 0 1 1.091.052c.868.916 1.772 1.825 2.548 2.822 3.14 3.984 5.019 8.814 5.394 13.873.02.149.049.297.087.443z" />
                                                    <path
                                                        d="M32.261 28.719l2.692 1.556c.23.096.398.3.448.545s-.025.498-.199.676c-.286.297-.752.323-1.069.06l-1.317-.763-1.237-.71-1.474 1.487 1.233 2.138.306.528c.106.176.136.387.084.586s-.182.368-.36.469a.74.74 0 0 1-1.042-.316l-1.324-2.28-.275-.443-1.746.444c-.107.034-.206.276-.211.424l-.011 2.443v.406c0 .205-.083.401-.229.545s-.345.222-.55.218a.74.74 0 0 1-.726-.763v-2.741c0-.348-.041-.544-.467-.594-.512-.096-1.016-.23-1.508-.4l-1.385 2.393-.234.391c-.214.359-.679.476-1.038.262s-.476-.679-.262-1.038l1.21-2.112.327-.57-1.48-1.475-2.464 1.408c-.2.111-.478.275-.646.214a1.29 1.29 0 0 1-.678-.57c-.165-.342.055-.653.376-.843l2.194-1.272.527-.305-.445-1.765c-.029-.1-.249-.2-.383-.2l-2.386-.009h-.458c-.214.009-.423-.07-.576-.22s-.238-.357-.234-.571a.75.75 0 0 1 .822-.718h2.6.548l.533-1.985-2.388-1.374c-.151-.078-.296-.165-.434-.263a.75.75 0 0 1-.219-1.001.75.75 0 0 1 .983-.288l2.026 1.156.816.458.684-.744c.235-.236.474-.432.75-.681l-1.477-2.577c-.105-.188-.272-.438-.22-.6a1.34 1.34 0 0 1 .524-.713c.359-.2.689.018.891.356l1.324 2.28.276.443 1.7-.44c.149-.095.245-.255.257-.432l.014-2.741c-.04-.368.184-.714.536-.829a.75.75 0 0 1 .978.779v2.689c0 .348.041.544.467.594a10.62 10.62 0 0 1 1.508.4l1.436-2.481c.075-.151.168-.293.276-.423a.7.7 0 0 1 .962-.125c.156.077.275.213.33.378s.04.345-.04.5l-2.1 3.645c-.269.437-.7.347-1.127.127a5.14 5.14 0 0 0-4.413-.243 5.26 5.26 0 0 0 2.088 10.142 5.26 5.26 0 0 0 5.05-4.493c.163-1.111-.03-2.246-.55-3.241-.319-.637-.237-.945.367-1.3q1.555-.908 3.118-1.8c.506-.289.958-.206 1.188.2s.078.818-.441 1.122l-2.6 1.505.445 1.757c.034.108.27.215.416.218l2.792.015a.75.75 0 0 1 .828.712c.007.214-.075.422-.227.573s-.359.234-.573.227c-.134.012-.27 0-.406 0h-2.386c-.306 0-.44.061-.492.4-.108.53-.244 1.054-.408 1.57"
                                                        fill="#ee4e5e" />
                                                    <path
                                                        d="M25.981 12.18c7.378-.003 13.454 5.797 13.792 13.168s-5.181 13.703-12.529 14.375-13.924-4.554-14.928-11.864c-.072-.534-.1-1.078-.119-1.618-.023-.643.247-.991.736-1s.764.327.782.966a11.85 11.85 0 0 0 4.212 9.008A12.27 12.27 0 0 0 37.72 22.379a12.27 12.27 0 0 0-23.587.436 3.51 3.51 0 0 1-.1.34.73.73 0 0 1-.917.51c-.189-.032-.354-.143-.456-.305s-.13-.36-.077-.544c.115-.543.269-1.078.458-1.6 2.005-5.416 7.165-9.015 12.94-9.025"
                                                        fill="#130708" />
                                                    <g fill="#ee4e5e">
                                                        <path
                                                            d="M7.101 17.715l2.725 1.576a3.85 3.85 0 0 1 .435.258c.232.136.374.386.372.656s-.148.517-.382.65-.522.131-.754-.006l-1.85-1.057-1.758-1.014a.71.71 0 0 1-.42-.837 10.71 10.71 0 0 1 .752-2.026 1.65 1.65 0 0 1 2.139-.788c.8.3 1.541.756 2.314 1.13.234.113.48.458.75.124s.046-.611-.168-.863l-2.108-2.472a2.85 2.85 0 0 1-.286-.356.7.7 0 0 1 .131-.962.67.67 0 0 1 .506-.22c.192.003.375.086.501.231a37.84 37.84 0 0 1 2.724 3.272 1.9 1.9 0 0 1-1.234 2.988 2.5 2.5 0 0 1-1.256-.252c-.57-.247-1.088-.611-1.641-.905-.917-.487-1.118-.4-1.436.611l-.053.267m2.752 15.828l1.479.086c.544.052.872.391.834.828s-.393.707-.953.682l-1.722-.11a.46.46 0 0 0-.533.33c-.646.908-.461 2.164.42 2.846l1.81-1.041 1.276-.731a.78.78 0 0 1 1.114.214.77.77 0 0 1 .074.639c-.07.214-.232.385-.441.468l-3.513 2.028c-.342.218-.791.163-1.069-.133a3.62 3.62 0 0 1-1.234-4.472 1.51 1.51 0 0 0 .05-.24l-1.463-.113c-.553-.043-.854-.344-.822-.818.012-.215.116-.415.285-.549a.75.75 0 0 1 .599-.151l1.722.11a.55.55 0 0 0 .652-.4l.739-1.5c.103-.273.353-.464.644-.491s.572.114.724.363.148.564-.009.81l-.661 1.345m30.923-18.599c-.237-.687-.917-1.278-.072-1.832.44-.286.73-.078 1.473 1.02l.755-1.264c.276-.565.594-.777 1.045-.611.231.079.411.263.483.497s.028.487-.118.682c-.376.705-.849 1.359-1.358 2.154l.519.9 2.4-.137a1.1 1.1 0 0 1 .764.305 1.01 1.01 0 0 1 .144.776c-.075.35-.394.467-.753.458-.547-.011-1.092 0-1.7 0 .258.667.961 1.283.122 1.78-.874.519-1.059-.435-1.528-.98l-.745 1.3c-.258.531-.632.75-1.069.562a.78.78 0 0 1-.429-.48c-.067-.214-.037-.448.082-.639a5.94 5.94 0 0 1 .6-1.11 11.26 11.26 0 0 1 .849-.971l-.565-.98-2.653.056a.72.72 0 0 1-.738-.886c.072-.449.458-.653 1-.611.472.037.949.008 1.5.008m-8.315 27.525c-.69.144-1.054-.108-1.092-.58s.26-.763.871-.828a5 5 0 0 0 3.721-2.182c.097-.192.269-.334.476-.392s.428-.026.61.087a.75.75 0 0 1 .167 1.147c-.232.251-.232.639 0 .89a10.6 10.6 0 0 1 .658 1.139c.25.5.5.9 1.2.8.419-.06.663.3.689.719s-.305.742-.825.776c-1.261.091-2.44.657-3.3 1.583a6.2 6.2 0 0 0-.5.638c-.104.178-.275.306-.474.356s-.411.018-.586-.09a.7.7 0 0 1-.217-1.055c.287-.321.279-.809-.018-1.121-.306-.458-.545-.973-.851-1.438a2.44 2.44 0 0 0-.519-.444m1.833-.336l.987 1.7 1.52-.883-.984-1.7-.739.458-.782.423m10.189-7.744a2.9 2.9 0 0 1 2.045.206.79.79 0 0 1 .458 1.04.77.77 0 0 1-.459.404.78.78 0 0 1-.61-.056 1.3 1.3 0 1 0-1.283 2.255c.259.141.413.417.398.711s-.198.553-.47.666a.76.76 0 0 1-.803-.137c-.473-1.604-2.116-2.561-3.744-2.179a2.81 2.81 0 0 1 .868-4.933 2.89 2.89 0 0 1 3.61 2.025m-1.492.664a1.29 1.29 0 1 0-1.292 1.292 1.29 1.29 0 0 0 1.292-1.292M24.477 6.786l.773-1.516c.142-.357.499-.582.883-.556a3.89 3.89 0 0 1 .458 0c.738.202 1.513-.16 1.833-.855a.74.74 0 0 1 1.314.088.74.74 0 0 1-.103.764c-.518.521-.619 1.326-.246 1.959a6.66 6.66 0 0 1 .4 1.872c.075.749-.313 1.468-.979 1.818-.632.4-1.438.4-2.07 0a.78.78 0 0 1-.45-.459c-.077-.211-.058-.444.05-.641.214-.382.611-.472 1.1-.25.541.243.917.017.816-.559a14.95 14.95 0 0 0-.541-2c-.035-.11-.289-.221-.431-.211-.322.024-.723-.2-.944.247l-1.069 2.128c-.165.331-.365.611-.787.611s-.623-.279-.79-.611l-1.323-2.623c-.269-.539-.182-.974.226-1.194s.852-.04 1.137.51l.749 1.463m-8.104 39.607c-1.312.038-2.503-.759-2.97-1.985a2.64 2.64 0 0 1 1.007-3.092c.458-.35.967-.611 1.448-.928a2.87 2.87 0 0 0 .519-.4c.241-.253.2-.482-.13-.634a1.83 1.83 0 0 0-.192-.058c-.55-.176-.787-.516-.666-.953a.79.79 0 0 1 .431-.511.8.8 0 0 1 .669 0 1.94 1.94 0 0 1 1.528 1.455c.167.731-.118 1.492-.724 1.933a12.9 12.9 0 0 1-1.308.863l-.631.423a1.19 1.19 0 0 0-.519 1.374c.208.57.734.963 1.34 1a1.16 1.16 0 0 0 1.2-.825c.153-.372.273-.763.394-1.147a.79.79 0 0 1 1.286-.518 2.83 2.83 0 0 1 .512.324c.199.155.301.404.27.654s-.192.466-.423.567c-.304.097-.535.345-.611.655a2.64 2.64 0 0 1-2.43 1.815" />
                                                        <path
                                                            d="M15.311 10.617c-.466-.2-.71-.527-.565-1.012.134-.449.5-.553.972-.505l.448-1.655-.472.211c-.343.153-.746.011-.917-.324a.66.66 0 0 1 .171-.95 23.12 23.12 0 0 1 2.192-1.266.7.7 0 0 1 .941.373l1.037 1.8a.76.76 0 0 1 .159.621c-.041.22-.176.412-.37.523-.38.223-.747.108-1.077-.339l-.186-.246-.443 1.62c.458.215.718.545.558 1.05-.142.447-.533.519-.973.515l-.541 2c-.153.577-.519.829-.979.7s-.639-.518-.487-1.1l.533-2.015m29.25 16.129h-1.375a.78.78 0 0 1-.83-.771c.006-.215.102-.417.265-.558a.76.76 0 0 1 .591-.179l2.637-.012c.532-.011.862-.305.857-.737a.75.75 0 0 0-.709-.78c-.594-.115-.88-.458-.791-.9s.466-.664 1.069-.591c.733.095 1.372.545 1.709 1.202a2.25 2.25 0 0 1-.02 2.09.86.86 0 0 0 .012.98 2.25 2.25 0 0 1-.031 2.137c-.369.662-1.046 1.094-1.802 1.15a.79.79 0 0 1-.606-.115.8.8 0 0 1-.341-.514c-.069-.423.209-.763.718-.869.555-.121.816-.391.788-.815-.029-.458-.35-.7-.936-.705h-1.222M5.182 23.799v-.85c-.002-.27.14-.521.373-.658s.521-.139.756-.006.381.382.383.652v1.469c.018.198-.046.395-.176.546s-.316.242-.514.254c-.472.064-.825.267-.817.788s.373.705.839.763a.72.72 0 0 1 .668.763v1.469a.75.75 0 0 1-.211.558.74.74 0 0 1-.553.224c-.206.003-.405-.079-.549-.226s-.222-.348-.215-.554a2.61 2.61 0 0 0-.012-.5.8.8 0 0 0-.257-.458 2.25 2.25 0 0 1-1.246-2.109 2.19 2.19 0 0 1 1.318-2c.06-.031.115-.069.2-.118M26.65 41.5l1.945.611c.219.058.399.215.487.424s.075.447-.036.645a.77.77 0 0 1-1.135.27 3.61 3.61 0 0 0-2.95-.153c-.207.072-.397.188-.555.34-.281.284-.163.611.225.715.639.16.883.469.764.96-.112.458-.558.654-1.153.516-.743-.125-1.328-.704-1.46-1.446a1.95 1.95 0 0 1 .8-2.054 5.22 5.22 0 0 1 3.069-.827m-1.118 7.293l-2.152-.683a.72.72 0 0 1-.432-1.032c.095-.203.275-.353.491-.412a.76.76 0 0 1 .632.107 3.62 3.62 0 0 0 2.806.217c.214-.051.414-.15.584-.289a.86.86 0 0 0 .241-.553c0-.092-.273-.176-.408-.281-.235-.185-.57-.342-.666-.586-.194-.5.234-.954.811-.916a1.8 1.8 0 0 1 1.6.991 1.9 1.9 0 0 1-.093 1.985c-.379.572-.967.972-1.638 1.116-.518.14-1.057.209-1.778.347m12.167-38.758a.94.94 0 0 1-1.15-.763c-.211-.638-.55-.98-1.289-.786a1.09 1.09 0 0 1-1.405-.818c-.153-.409-.393-.785-.57-1.186a.74.74 0 0 1 .327-1.037c.178-.108.396-.13.592-.058s.349.228.415.426c.064.415.312.779.676.989a1.39 1.39 0 0 0 1.194.094.71.71 0 0 1 .849.565 1.22 1.22 0 0 0 1.633.971.76.76 0 0 1 .686.096c.2.14.322.367.327.611.017.473-.338.763-.97.8l-1.315.095m-.952 2.601l-.611.037c-.453.107-.909-.163-1.034-.611a1.15 1.15 0 0 0-1.555-.916c-.233.065-.482.034-.692-.086s-.363-.318-.426-.551l-.642-1.321c-.119-.18-.154-.402-.099-.61s.198-.382.391-.479a.7.7 0 0 1 1.039.4c.306.9.819 1.3 1.787 1.05a.7.7 0 0 1 .881.51c.052.382.274.72.605.92a1.27 1.27 0 0 0 1.095.105c.225-.072.471-.033.662.105s.307.359.31.595c.023.458-.327.763-.909.8l-.81.047v.014M8.226 25.881V22.89c0-.583.306-.927.781-.916s.738.347.739.905v5.982c0 .588-.306.916-.781.916-.458-.012-.735-.339-.738-.9v-2.991" />
                                                    </g>
                                                </g>
                                            </svg>
