<?xml version="1.0" encoding="UTF-8"?>
<svg version="1.1" xmlns="http://www.w3.org/2000/svg" width="512" height="512">
<path d="M0 0 C1.45128296 -0.01191879 1.45128296 -0.01191879 2.93188477 -0.02407837 C17.16795179 -0.11375462 30.89460286 1.04393539 44.9375 3.375 C46.07501709 3.56304199 47.21253418 3.75108398 48.38452148 3.94482422 C50.97963824 4.41144902 53.55074854 4.93016869 56.125 5.5 C57.51392456 5.80695801 57.51392456 5.80695801 58.9309082 6.12011719 C89.568997 13.24419057 128.07176069 26.50926069 150.9375 49.375 C151.50854467 53.69862389 151.38041759 55.71062362 148.9375 59.375 C145.9375 61.375 145.9375 61.375 142.25 61.625 C137.68680457 60.71066771 134.5533897 58.20935789 130.8828125 55.46484375 C124.90369571 51.22236698 118.38848692 47.83961571 111.9375 44.375 C111.29538574 44.02791992 110.65327148 43.68083984 109.99169922 43.32324219 C55.72182452 14.25855448 -10.40085392 8.7905776 -69.17822266 26.45947266 C-98.37688391 35.72771201 -125.15340962 49.1320283 -149.0625 68.375 C-149.93865967 69.07761963 -149.93865967 69.07761963 -150.83251953 69.79443359 C-164.83155396 81.13637166 -178.23823284 93.94899606 -189.0625 108.375 C-189.76439453 109.28693115 -189.76439453 109.28693115 -190.48046875 110.21728516 C-214.01337291 140.88563853 -228.58285508 175.62254816 -236.0625 213.375 C-236.22911133 214.17518555 -236.39572266 214.97537109 -236.56738281 215.79980469 C-242.28803905 244.28464579 -241.21708221 277.07984691 -235.0625 305.375 C-234.84819336 306.36258301 -234.63388672 307.35016602 -234.41308594 308.36767578 C-225.86194959 346.34990658 -208.57402373 381.88164135 -183.0625 411.375 C-182.40378906 412.14457031 -181.74507813 412.91414063 -181.06640625 413.70703125 C-169.85154239 426.49070404 -157.84780845 438.39396823 -144.0625 448.375 C-143.46034668 448.81618164 -142.85819336 449.25736328 -142.23779297 449.71191406 C-124.74618472 462.44057066 -106.11371549 472.33302268 -86.0625 480.375 C-83.68585299 481.32942854 -81.31090789 482.28749884 -78.9375 483.25 C-78.04804688 483.59804688 -77.15859375 483.94609375 -76.2421875 484.3046875 C-73.96597874 485.42239574 -72.60787357 486.36898624 -71.0625 488.375 C-70.67196204 491.95493132 -70.6453869 494.44262954 -72.125 497.75 C-75.05591417 500.20818607 -77.25075074 500.19170686 -81.0625 500.375 C-84.40607145 499.59595861 -87.51317975 498.35792893 -90.6875 497.0625 C-91.60337891 496.69858154 -92.51925781 496.33466309 -93.46289062 495.9597168 C-115.45549866 487.06984764 -136.30283638 475.99373453 -155.0625 461.375 C-155.89523438 460.73304688 -156.72796875 460.09109375 -157.5859375 459.4296875 C-162.83407622 455.31191712 -167.82703284 450.96474342 -172.75 446.46484375 C-174.71235514 444.69143159 -176.70911409 442.99349755 -178.75 441.3125 C-181.86582636 438.66042454 -184.49032948 435.73141122 -187.1328125 432.61328125 C-189.27126295 430.13285188 -191.50885003 427.76293455 -193.75 425.375 C-223.48069715 392.63075261 -242.63150111 351.18335921 -251.8125 308.1875 C-252.01133789 307.26267822 -252.21017578 306.33785645 -252.41503906 305.38500977 C-255.70691382 289.1783142 -256.43780274 273.24462039 -256.375 256.75 C-256.37284485 255.73176147 -256.3706897 254.71352295 -256.36846924 253.66442871 C-256.31876609 239.0402116 -256.00457988 224.74695362 -253.0625 210.375 C-252.77246094 208.88009033 -252.77246094 208.88009033 -252.4765625 207.35498047 C-243.04587882 159.62669789 -221.07635226 115.33095549 -187.0625 80.375 C-186.36995117 79.65666992 -185.67740234 78.93833984 -184.96386719 78.19824219 C-175.22477659 68.13054457 -165.47528841 58.52562776 -154.0625 50.375 C-153.44342773 49.92753418 -152.82435547 49.48006836 -152.18652344 49.01904297 C-120.35180047 26.13034085 -84.67308848 10.48070175 -46.0625 3.375 C-45.26183105 3.21418945 -44.46116211 3.05337891 -43.63623047 2.88769531 C-29.20994359 0.06585658 -14.64379355 0.06298816 0 0 Z " fill="#000000" transform="translate(256.0625,-0.375)"/>
<path d="M0 0 C0.66 -0.0103125 1.32 -0.020625 2 -0.03125 C5.01589902 0.76984818 6.0988613 2.02803097 8 4.5 C8.34923596 7.32017427 8.46849209 9.73720263 8.390625 12.546875 C8.38496521 13.31807678 8.37930542 14.08927856 8.37347412 14.8838501 C8.35113589 17.33987279 8.30094763 19.79442055 8.25 22.25 C8.22993154 23.91794763 8.21168137 25.58591821 8.1953125 27.25390625 C8.15127992 31.33650323 8.08227283 35.41800181 8 39.5 C8.73968018 39.62552246 9.47936035 39.75104492 10.24145508 39.88037109 C11.22009521 40.05133301 12.19873535 40.22229492 13.20703125 40.3984375 C14.65686401 40.64859619 14.65686401 40.64859619 16.13598633 40.90380859 C19.97434404 41.70282569 23.3836372 42.99886827 27 44.5 C27.26949463 43.78666504 27.53898926 43.07333008 27.81665039 42.33837891 C29.92046134 37.29218413 32.74693037 32.62686942 35.4375 27.875 C36.31631836 26.30105469 36.31631836 26.30105469 37.21289062 24.6953125 C37.78072266 23.68984375 38.34855469 22.684375 38.93359375 21.6484375 C39.44978271 20.73239746 39.96597168 19.81635742 40.49780273 18.87255859 C41.87216933 16.70189475 42.97493118 15.07056539 45 13.5 C51.79245283 12.74528302 51.79245283 12.74528302 55.5 15.0625 C57.60082324 18.47633776 57.37823726 20.51241353 57 24.5 C55.82889828 27.46686413 54.25808081 30.14057405 52.625 32.875 C52.17890381 33.647229 51.73280762 34.41945801 51.27319336 35.21508789 C50.33616142 36.83204635 49.39227196 38.44504844 48.44189453 40.05419922 C47.01459501 42.47524335 45.6120324 44.90913394 44.21484375 47.34765625 C43.33171706 48.87817462 42.4476377 50.40814377 41.5625 51.9375 C41.15016113 52.65276855 40.73782227 53.36803711 40.31298828 54.10498047 C35.70233534 61.95544893 35.70233534 61.95544893 31.2890625 63.3671875 C27.14543692 63.5345073 24.07880035 62.28506988 20.375 60.625 C8.04691584 55.3103338 -5.60028857 54.23631667 -18.32421875 59.234375 C-22.78554263 61.34454863 -26.94061006 63.69237316 -31 66.5 C-31.63679688 66.93957031 -32.27359375 67.37914062 -32.9296875 67.83203125 C-41.97578076 74.80757428 -47.55282893 86.51636325 -50 97.5 C-50.93291341 112.7936624 -48.88626456 124.65184922 -40 137.5 C-39.56042969 138.13679687 -39.12085938 138.77359375 -38.66796875 139.4296875 C-31.69242572 148.47578076 -19.98363675 154.05282893 -9 156.5 C6.2936624 157.43291341 18.15184922 155.38626456 31 146.5 C31.63679687 146.06042969 32.27359375 145.62085938 32.9296875 145.16796875 C41.97578076 138.19242572 47.55282893 126.48363675 50 115.5 C50.7646212 102.96522619 49.56638335 93.1049316 44.1875 81.625 C42.74843355 77.83798303 42.47453745 76.27351261 44 72.5 C50.32699821 66.42163136 58.77682709 62.46038446 66.375 58.1875 C67.67085265 57.45296725 68.96642776 56.71794462 70.26171875 55.98242188 C82.66018032 48.95346382 82.66018032 48.95346382 89 49.5 C91.4375 51 91.4375 51 93 53.5 C93.60921535 56.30468955 93.86557371 58.74736809 93 61.5 C87.78334183 66.05801864 81.78065613 69.28938383 75.8125 72.75 C74.70712891 73.3996875 73.60175781 74.049375 72.46289062 74.71875 C71.40908203 75.33234375 70.35527344 75.9459375 69.26953125 76.578125 C67.82477417 77.41972168 67.82477417 77.41972168 66.35083008 78.27832031 C64 79.5 64 79.5 62 79.5 C62.27714844 80.20125 62.55429687 80.9025 62.83984375 81.625 C63.20207031 82.57375 63.56429687 83.5225 63.9375 84.5 C64.29714844 85.428125 64.65679687 86.35625 65.02734375 87.3125 C66.17382679 91.06964923 66.54920555 94.59896162 67 98.5 C68.55895996 98.4685791 68.55895996 98.4685791 70.14941406 98.43652344 C74.01076442 98.36404326 77.87205483 98.31817169 81.73388672 98.28027344 C83.40423702 98.26017607 85.07451713 98.23289317 86.74462891 98.19824219 C89.1476372 98.14963881 91.54971434 98.12701344 93.953125 98.109375 C94.69806213 98.08872986 95.44299927 98.06808472 96.21051025 98.04681396 C99.74291331 98.04529028 101.62831714 98.21389209 104.4675293 100.39941406 C106.11623396 102.65932404 106.56790286 103.73373389 106.5625 106.5 C106.58441406 107.16 106.60632813 107.82 106.62890625 108.5 C105.6228335 111.69943632 103.78426346 112.71097046 101 114.5 C98.21471351 114.8428839 95.84469822 114.97029734 93.07421875 114.890625 C92.32662796 114.88496521 91.57903717 114.87930542 90.80879211 114.87347412 C88.43436089 114.85118468 86.06147062 114.80100656 83.6875 114.75 C82.07228751 114.72992519 80.45705123 114.71167613 78.84179688 114.6953125 C74.89394267 114.65134486 70.94723208 114.58237261 67 114.5 C66.87447754 115.23968018 66.74895508 115.97936035 66.61962891 116.74145508 C66.36318604 118.20941528 66.36318604 118.20941528 66.1015625 119.70703125 C65.93479004 120.67358643 65.76801758 121.6401416 65.59619141 122.63598633 C64.79717431 126.47434404 63.50113173 129.8836372 62 133.5 C62.96486328 133.84804688 62.96486328 133.84804688 63.94921875 134.203125 C68.06023217 135.95070049 71.90923979 138.08402901 75.8125 140.25 C76.58142578 140.66765625 77.35035156 141.0853125 78.14257812 141.515625 C92.31856601 149.36326049 92.31856601 149.36326049 93.63891602 153.50341797 C93.81493392 156.8651666 93.21085405 159.16263352 91.4375 162 C88.00604459 164.11166486 86.01320114 163.89730691 82 163.5 C78.84817431 162.22132339 75.98183889 160.54932187 73.0625 158.8125 C72.30259766 158.37744141 71.54269531 157.94238281 70.75976562 157.49414062 C66.32048607 154.93520493 61.99140667 152.24380428 57.72436523 149.40698242 C55.8822041 148.26724299 55.8822041 148.26724299 53 148.5 C51.23064087 150.16433967 51.23064087 150.16433967 49.5625 152.3125 C47.2433239 155.16088407 45.01947904 157.396319 42 159.5 C42.67363846 163.17266167 44.26735322 165.91611001 46.16015625 169.11328125 C46.78857422 170.19673828 47.41699219 171.28019531 48.06445312 172.39648438 C49.39238125 174.6668131 50.72828602 176.93249572 52.07226562 179.19335938 C52.69939453 180.28068359 53.32652344 181.36800781 53.97265625 182.48828125 C54.55281494 183.47352783 55.13297363 184.45877441 55.73071289 185.47387695 C57.2328909 189.05523808 57.33241894 191.65065182 57 195.5 C55.5 197.9375 55.5 197.9375 53 199.5 C50.19531045 200.10921535 47.75263191 200.36557371 45 199.5 C40.44198136 194.28334183 37.21061617 188.28065613 33.75 182.3125 C33.1003125 181.20712891 32.450625 180.10175781 31.78125 178.96289062 C31.16765625 177.90908203 30.5540625 176.85527344 29.921875 175.76953125 C29.08027832 174.32477417 29.08027832 174.32477417 28.22167969 172.85083008 C27 170.5 27 170.5 27 168.5 C26.29875 168.77714844 25.5975 169.05429687 24.875 169.33984375 C23.92625 169.70207031 22.9775 170.06429687 22 170.4375 C21.071875 170.79714844 20.14375 171.15679687 19.1875 171.52734375 C15.43035077 172.67382679 11.90103838 173.04920555 8 173.5 C8.0314209 175.00566528 8.0314209 175.00566528 8.06347656 176.54174805 C8.13606694 180.27825566 8.18186811 184.01470137 8.21972656 187.75170898 C8.23979892 189.36672458 8.2670633 190.98166789 8.30175781 192.59643555 C8.35047215 194.92254501 8.37301154 197.24769093 8.390625 199.57421875 C8.41127014 200.29212082 8.43191528 201.01002289 8.45318604 201.74967957 C8.45480645 205.39855731 8.09256204 207.35594587 6.10058594 210.45605469 C4 212.5 4 212.5 2 213.12890625 C1.34 213.10699219 0.68 213.08507812 0 213.0625 C-0.66 213.06378906 -1.32 213.06507813 -2 213.06640625 C-4.99615874 212.21788473 -6.09955207 210.9688724 -8 208.5 C-8.34923596 205.67982573 -8.46849209 203.26279737 -8.390625 200.453125 C-8.38496521 199.68192322 -8.37930542 198.91072144 -8.37347412 198.1161499 C-8.35113589 195.66012721 -8.30094763 193.20557945 -8.25 190.75 C-8.22993154 189.08205237 -8.21168137 187.41408179 -8.1953125 185.74609375 C-8.15127992 181.66349677 -8.08227283 177.58199819 -8 173.5 C-8.73968018 173.37447754 -9.47936035 173.24895508 -10.24145508 173.11962891 C-11.70941528 172.86318604 -11.70941528 172.86318604 -13.20703125 172.6015625 C-14.17358643 172.43479004 -15.1401416 172.26801758 -16.13598633 172.09619141 C-19.97434404 171.29717431 -23.3836372 170.00113173 -27 168.5 C-27.23203125 169.14324219 -27.4640625 169.78648437 -27.703125 170.44921875 C-29.45070049 174.56023217 -31.58402901 178.40923979 -33.75 182.3125 C-34.16765625 183.08142578 -34.5853125 183.85035156 -35.015625 184.64257812 C-42.86326049 198.81856601 -42.86326049 198.81856601 -47.00341797 200.13891602 C-50.3651666 200.31493392 -52.66263352 199.71085405 -55.5 197.9375 C-57.61166486 194.50604459 -57.39730691 192.51320114 -57 188.5 C-55.72132339 185.34817431 -54.04932187 182.48183889 -52.3125 179.5625 C-51.87744141 178.80259766 -51.44238281 178.04269531 -50.99414062 177.25976562 C-48.43520493 172.82048607 -45.74380428 168.49140667 -42.90698242 164.22436523 C-41.76724299 162.3822041 -41.76724299 162.3822041 -42 159.5 C-43.66433967 157.73064087 -43.66433967 157.73064087 -45.8125 156.0625 C-48.66088407 153.7433239 -50.896319 151.51947904 -53 148.5 C-56.67266167 149.17363846 -59.41611001 150.76735322 -62.61328125 152.66015625 C-63.69673828 153.28857422 -64.78019531 153.91699219 -65.89648438 154.56445312 C-68.1668131 155.89238125 -70.43249572 157.22828602 -72.69335938 158.57226562 C-74.3243457 159.51295898 -74.3243457 159.51295898 -75.98828125 160.47265625 C-76.97352783 161.05281494 -77.95877441 161.63297363 -78.97387695 162.23071289 C-82.55523808 163.7328909 -85.15065182 163.83241894 -89 163.5 C-91.4375 162 -91.4375 162 -93 159.5 C-93.60921535 156.69531045 -93.86557371 154.25263191 -93 151.5 C-87.78334183 146.94198136 -81.78065613 143.71061617 -75.8125 140.25 C-74.15444336 139.27546875 -74.15444336 139.27546875 -72.46289062 138.28125 C-71.40908203 137.66765625 -70.35527344 137.0540625 -69.26953125 136.421875 C-68.30635986 135.86081055 -67.34318848 135.29974609 -66.35083008 134.72167969 C-64 133.5 -64 133.5 -62 133.5 C-62.27714844 132.79875 -62.55429688 132.0975 -62.83984375 131.375 C-63.20207031 130.42625 -63.56429687 129.4775 -63.9375 128.5 C-64.29714844 127.571875 -64.65679687 126.64375 -65.02734375 125.6875 C-66.17382679 121.93035077 -66.54920555 118.40103838 -67 114.5 C-68.50566528 114.5314209 -68.50566528 114.5314209 -70.04174805 114.56347656 C-73.77825566 114.63606694 -77.51470137 114.68186811 -81.25170898 114.71972656 C-82.86672458 114.73979892 -84.48166789 114.7670633 -86.09643555 114.80175781 C-88.42254501 114.85047215 -90.74769093 114.87301154 -93.07421875 114.890625 C-93.79212082 114.91127014 -94.51002289 114.93191528 -95.24967957 114.95318604 C-98.89855731 114.95480645 -100.85594587 114.59256204 -103.95605469 112.60058594 C-106 110.5 -106 110.5 -106.62890625 108.5 C-106.60699219 107.84 -106.58507812 107.18 -106.5625 106.5 C-106.56378906 105.84 -106.56507813 105.18 -106.56640625 104.5 C-105.71788473 101.50384126 -104.4688724 100.40044793 -102 98.5 C-99.17982573 98.15076404 -96.76279737 98.03150791 -93.953125 98.109375 C-92.79632233 98.11786469 -92.79632233 98.11786469 -91.6161499 98.12652588 C-89.16012721 98.14886411 -86.70557945 98.19905237 -84.25 98.25 C-82.58205237 98.27006846 -80.91408179 98.28831863 -79.24609375 98.3046875 C-75.16349677 98.34872008 -71.08199819 98.41772717 -67 98.5 C-66.87447754 97.76031982 -66.74895508 97.02063965 -66.61962891 96.25854492 C-66.44866699 95.27990479 -66.27770508 94.30126465 -66.1015625 93.29296875 C-65.85140381 91.84313599 -65.85140381 91.84313599 -65.59619141 90.36401367 C-64.79717431 86.52565596 -63.50113173 83.1163628 -62 79.5 C-62.71333496 79.23050537 -63.42666992 78.96101074 -64.16162109 78.68334961 C-69.20781587 76.57953866 -73.87313058 73.75306963 -78.625 71.0625 C-80.19894531 70.18368164 -80.19894531 70.18368164 -81.8046875 69.28710938 C-82.81015625 68.71927734 -83.815625 68.15144531 -84.8515625 67.56640625 C-85.76760254 67.05021729 -86.68364258 66.53402832 -87.62744141 66.00219727 C-89.79810525 64.62783067 -91.42943461 63.52506882 -93 61.5 C-93.75471698 54.70754717 -93.75471698 54.70754717 -91.4375 51 C-88.00604459 48.88833514 -86.01320114 49.10269309 -82 49.5 C-78.84817431 50.77867661 -75.98183889 52.45067813 -73.0625 54.1875 C-71.92264648 54.84008789 -71.92264648 54.84008789 -70.75976562 55.50585938 C-66.32048607 58.06479507 -61.99140667 60.75619572 -57.72436523 63.59301758 C-55.8822041 64.73275701 -55.8822041 64.73275701 -53 64.5 C-51.23064087 62.83566033 -51.23064087 62.83566033 -49.5625 60.6875 C-47.2433239 57.83911593 -45.01947904 55.603681 -42 53.5 C-42.67363846 49.82733833 -44.26735322 47.08388999 -46.16015625 43.88671875 C-46.78857422 42.80326172 -47.41699219 41.71980469 -48.06445312 40.60351562 C-49.39238125 38.3331869 -50.72828602 36.06750428 -52.07226562 33.80664062 C-52.69939453 32.71931641 -53.32652344 31.63199219 -53.97265625 30.51171875 C-54.55281494 29.52647217 -55.13297363 28.54122559 -55.73071289 27.52612305 C-57.2328909 23.94476192 -57.33241894 21.34934818 -57 17.5 C-55.5 15.0625 -55.5 15.0625 -53 13.5 C-50.19531045 12.89078465 -47.75263191 12.63442629 -45 13.5 C-40.44198136 18.71665817 -37.21061617 24.71934387 -33.75 30.6875 C-32.77546875 32.34555664 -32.77546875 32.34555664 -31.78125 34.03710938 C-31.16765625 35.09091797 -30.5540625 36.14472656 -29.921875 37.23046875 C-29.08027832 38.67522583 -29.08027832 38.67522583 -28.22167969 40.14916992 C-27 42.5 -27 42.5 -27 44.5 C-26.29875 44.22285156 -25.5975 43.94570312 -24.875 43.66015625 C-23.92625 43.29792969 -22.9775 42.93570313 -22 42.5625 C-21.071875 42.20285156 -20.14375 41.84320313 -19.1875 41.47265625 C-15.43035077 40.32617321 -11.90103838 39.95079445 -8 39.5 C-8.0314209 37.94104004 -8.0314209 37.94104004 -8.06347656 36.35058594 C-8.13595674 32.48923558 -8.18182831 28.62794517 -8.21972656 24.76611328 C-8.23982393 23.09576298 -8.26710683 21.42548287 -8.30175781 19.75537109 C-8.35036119 17.3523628 -8.37298656 14.95028566 -8.390625 12.546875 C-8.41127014 11.80193787 -8.43191528 11.05700073 -8.45318604 10.28948975 C-8.45470998 6.75647779 -8.28519993 4.87083322 -6.10058594 2.03027344 C-3.82687722 0.37388034 -2.77879678 -0.0434187 0 0 Z " fill="#000000" transform="translate(256,149.5)"/>
<path d="M0 0 C0.70476471 0.00248749 1.40952942 0.00497498 2.13565063 0.00753784 C12.76263853 0.06548708 22.95884914 0.41042954 33.25 3.3125 C34.04841309 3.53292969 34.84682617 3.75335938 35.66943359 3.98046875 C53.30867018 9.0041127 69.97004659 16.67077845 84.25 28.3125 C85.05099121 28.94961914 85.05099121 28.94961914 85.86816406 29.59960938 C107.99736479 47.27803565 123.34464321 70.4790473 131.625 97.5625 C131.86379883 98.34141602 132.10259766 99.12033203 132.34863281 99.92285156 C135.78333173 111.84737066 136.63246612 123.69786117 136.5625 136.0625 C136.56001251 136.76726471 136.55752502 137.47202942 136.55496216 138.19815063 C136.49701292 148.82513853 136.15207046 159.02134914 133.25 169.3125 C133.02957031 170.11091309 132.80914062 170.90932617 132.58203125 171.73193359 C127.5583873 189.37117018 119.89172155 206.03254659 108.25 220.3125 C107.61288086 221.11349121 107.61288086 221.11349121 106.96289062 221.93066406 C89.28446435 244.05986479 66.0834527 259.40714321 39 267.6875 C38.22108398 267.92629883 37.44216797 268.16509766 36.63964844 268.41113281 C24.71512934 271.84583173 12.86463883 272.69496612 0.5 272.625 C-0.20476471 272.62251251 -0.90952942 272.62002502 -1.63565063 272.61746216 C-12.26263853 272.55951292 -22.45884914 272.21457046 -32.75 269.3125 C-33.54841309 269.09207031 -34.34682617 268.87164062 -35.16943359 268.64453125 C-52.80867018 263.6208873 -69.47004659 255.95422155 -83.75 244.3125 C-84.28399414 243.88775391 -84.81798828 243.46300781 -85.36816406 243.02539062 C-111.83661877 221.88045047 -130.82058758 190.5371524 -135.5 156.66015625 C-135.85716049 151.87755409 -136.03815388 147.10729865 -136.125 142.3125 C-136.15126465 141.39090088 -136.1775293 140.46930176 -136.20458984 139.51977539 C-136.22026568 132.98837967 -136.22026568 132.98837967 -133.9453125 129.71875 C-130.71078607 127.64681136 -128.50482223 127.77609682 -124.75 128.3125 C-121.54218098 130.67615612 -120.50469297 132.49482171 -119.75 136.3125 C-119.59968278 137.74843392 -119.48187061 139.18801218 -119.390625 140.62890625 C-117.32095243 169.10814911 -108.27374993 193.35698166 -89.75 215.3125 C-89.27175781 215.92480469 -88.79351562 216.53710938 -88.30078125 217.16796875 C-70.00704331 240.07445436 -39.27198159 252.27572209 -10.96484375 255.78125 C20.8393141 258.58281746 52.55101777 248.56471226 77.05078125 228.16796875 C78.13939453 227.24951172 78.13939453 227.24951172 79.25 226.3125 C79.86230469 225.83425781 80.47460938 225.35601562 81.10546875 224.86328125 C99.0749384 210.51237757 110.05500521 187.95729932 116.25 166.3125 C116.59160156 165.18328125 116.93320312 164.0540625 117.28515625 162.890625 C124.8999797 132.71467345 118.045158 99.52899211 102.38134766 73.10742188 C99.07735529 67.86552462 95.19244487 63.08116682 91.25 58.3125 C90.35667969 57.18908203 90.35667969 57.18908203 89.4453125 56.04296875 C70.3486561 32.88027785 40.53744586 20.41525409 11.4296875 16.84375 C-20.46706255 14.00848333 -52.04934639 24.07750128 -76.75 44.3125 C-78.02617187 45.34117187 -78.02617187 45.34117187 -79.328125 46.390625 C-98.16092342 62.38073686 -109.68098689 84.92725878 -116.51171875 108.30078125 C-117.83857226 111.52792338 -118.72406806 112.66041072 -121.75 114.3125 C-125.72230815 114.98863756 -127.27219577 114.61748142 -130.6875 112.4375 C-133.23349585 108.57993054 -133.23294468 106.86976973 -132.50390625 102.41015625 C-127.69137607 82.63639237 -118.07990458 63.67919787 -104.75 48.3125 C-104.29544434 47.7772168 -103.84088867 47.24193359 -103.37255859 46.69042969 C-86.28355318 26.67606794 -63.62576506 12.59601497 -38.5 4.9375 C-37.33198853 4.57954346 -37.33198853 4.57954346 -36.14038086 4.21435547 C-24.21612109 0.7783202 -12.36460908 -0.06996595 0 0 Z " fill="#000000" transform="translate(255.75,119.6875)"/>
<path d="M0 0 C5.03972158 1.06609495 7.65562525 4.12937104 11.25 7.6875 C12.17167969 8.56019531 13.09335937 9.43289062 14.04296875 10.33203125 C21.56752724 17.54347738 28.04279209 25.32934763 34.25 33.6875 C34.89582031 34.55012451 34.89582031 34.55012451 35.5546875 35.43017578 C42.06323777 44.16494609 47.89040377 53.20635616 53.25 62.6875 C53.6521875 63.39471191 54.054375 64.10192383 54.46875 64.83056641 C67.4941741 87.96595836 76.24301461 113.13712409 81.5625 139.125 C81.70985596 139.84389404 81.85721191 140.56278809 82.0090332 141.3034668 C84.98289102 156.94975679 85.62299808 172.42318085 85.5625 188.3125 C85.56034485 189.33073853 85.5581897 190.34897705 85.55596924 191.39807129 C85.50626609 206.0222884 85.19207988 220.31554638 82.25 234.6875 C81.95996094 236.18240967 81.95996094 236.18240967 81.6640625 237.70751953 C73.54528127 278.79632055 56.17584885 315.89049494 30.25 348.6875 C29.43789063 349.72519531 28.62578125 350.76289063 27.7890625 351.83203125 C15.11419231 367.40572821 0.55062389 381.94001289 -15.75 393.6875 C-16.83837361 394.50369833 -17.92560144 395.3214266 -19.01171875 396.140625 C-50.21919298 419.39074208 -86.53847951 434.65524075 -124.75 441.6875 C-125.55066895 441.84831055 -126.35133789 442.00912109 -127.17626953 442.17480469 C-155.76171924 447.76623163 -199.32072502 450.55030343 -226.75 438.6875 C-229.22342266 434.97736601 -229.13503486 433.07689738 -228.75 428.6875 C-227.625 426.3125 -227.625 426.3125 -225.75 424.6875 C-221.58823875 423.71116177 -218.25827 423.6978029 -214.06640625 424.4296875 C-212.98568848 424.60862549 -211.9049707 424.78756348 -210.79150391 424.97192383 C-209.06939697 425.26425903 -209.06939697 425.26425903 -207.3125 425.5625 C-146.16360942 435.22170354 -82.85672675 420.55192281 -32.18701172 384.88330078 C-22.09556545 377.50094051 -12.71887221 369.38569892 -3.75 360.6875 C-3.21036621 360.17364746 -2.67073242 359.65979492 -2.11474609 359.13037109 C6.1760948 351.22842921 13.43814455 342.88898801 20.25 333.6875 C20.67909668 333.11386719 21.10819336 332.54023438 21.55029297 331.94921875 C43.74740201 302.16256428 58.16758803 268.10373282 65.25 231.6875 C65.41516113 230.89021484 65.58032227 230.09292969 65.75048828 229.27148438 C71.47816278 200.76934407 70.38497343 168.00240034 64.25 139.6875 C64.04101074 138.71055176 63.83202148 137.73360352 63.61669922 136.72705078 C59.15247506 116.57952227 52.14080441 96.80858903 42.30664062 78.64453125 C41.17834607 76.55478791 40.08195646 74.44976924 38.984375 72.34375 C28.37924139 52.31400103 14.48823612 34.22266578 -1.91821289 18.59228516 C-4.4511444 16.15124846 -6.56204735 14.03922356 -7.75 10.6875 C-7.6024997 7.14749272 -7.12096501 5.2095989 -5.0625 2.3125 C-2.75 0.6875 -2.75 0.6875 0 0 Z " fill="#000000" transform="translate(426.75,67.3125)"/>
<path d="M0 0 C7.42078999 4.56536297 12.97709212 12.58253934 18.49072266 19.20556641 C19.93426066 20.92184016 21.40403565 22.61048786 22.88671875 24.29296875 C29.60079381 31.97048239 33.70783702 38.01276978 33.3515625 48.5390625 C32.58890455 53.87766814 30.37549516 57.6932796 26.5 61.375 C20.61701954 65.1989373 16.00841879 66.01778311 9 65 C1.93833119 62.36437071 -4.34266279 58.19988338 -10.73046875 54.2578125 C-13.77101236 52.57269194 -16.61397328 51.73609276 -20 51 C-22.96052484 54.36423277 -23.92289822 57.69159287 -25 62 C-24.29496338 62.26570801 -23.58992676 62.53141602 -22.86352539 62.80517578 C-17.49665777 65.0445355 -12.50810938 68.04099977 -7.4375 70.875 C-6.30119141 71.50019531 -5.16488281 72.12539062 -3.99414062 72.76953125 C-2.90166016 73.37925781 -1.80917969 73.98898438 -0.68359375 74.6171875 C0.31099854 75.17003418 1.30559082 75.72288086 2.33032227 76.29248047 C5.49665309 78.31765814 8.50848806 80.2644544 9.56640625 84 C9.55886922 87.85895726 9.45762227 89.46162086 6.875 92.5 C3.47574161 94.27352612 1.79855346 94.35098622 -2 94 C-5.0769043 92.64233398 -5.0769043 92.64233398 -8.32421875 90.74609375 C-8.91112991 90.40755875 -9.49804108 90.06902374 -10.10273743 89.7202301 C-11.97159044 88.63794782 -13.82928342 87.53792207 -15.6875 86.4375 C-16.91535701 85.72477561 -18.14386826 85.01317706 -19.37304688 84.30273438 C-40.18571853 72.22142221 -40.18571853 72.22142221 -43 68 C-43.52395966 58.63858744 -39.84524776 48.22060017 -34 41 C-29.38961327 36.17007104 -24.73850416 34.1567094 -18 34 C-10.32536619 34.7971754 -4.22202153 38.2769608 2.375 42.0625 C4.3192296 43.15947358 6.26449544 44.25461321 8.2109375 45.34765625 C9.05962402 45.83242432 9.90831055 46.31719238 10.78271484 46.81665039 C13.06758397 48.11568951 13.06758397 48.11568951 16 49 C15.57380933 43.59936514 14.55861281 40.75889904 11 36.6875 C9.78183594 35.27404297 9.78183594 35.27404297 8.5390625 33.83203125 C5.41871753 30.35164648 2.28726122 26.88168826 -0.8515625 23.41796875 C-2.95737419 21.04797341 -5.00463009 18.65117101 -7 16.1875 C-7.556875 15.50042969 -8.11375 14.81335938 -8.6875 14.10546875 C-10.19157705 11.69267849 -10.68912734 9.81614056 -11 7 C-9.33474692 1.03284313 -6.14090404 -1.04279503 0 0 Z " fill="#000000" transform="translate(96,113)"/>
<path d="M0 0 C2.875 1.5 2.875 1.5 5 4 C6.5081744 11.67797876 2.68216175 17.42471115 -1 24 C0.09699219 24.09796875 1.19398437 24.1959375 2.32421875 24.296875 C3.77873878 24.447019 5.23316118 24.59811083 6.6875 24.75 C7.7693457 24.8428125 7.7693457 24.8428125 8.87304688 24.9375 C13.641667 25.46008851 16.60109058 26.34469316 20 30 C20.6640625 32 20.6640625 32 20.625 34 C20.64433594 34.99 20.64433594 34.99 20.6640625 36 C19.62964695 39.11541626 17.68225261 40.20026518 15 42 C12.13745117 42.45410156 12.13745117 42.45410156 9.04296875 42.390625 C7.93115234 42.37773437 6.81933594 42.36484375 5.67382812 42.3515625 C4.52333984 42.31804687 3.37285156 42.28453125 2.1875 42.25 C1.01767578 42.23195313 -0.15214844 42.21390625 -1.35742188 42.1953125 C-4.2391178 42.1482644 -7.11913797 42.08253709 -10 42 C-10.65850026 43.74557225 -11.31098416 45.49341486 -11.9609375 47.2421875 C-12.32493652 48.21526855 -12.68893555 49.18834961 -13.06396484 50.19091797 C-14.44185648 54.32603042 -14.70227311 56.6459067 -14 61 C-12.2575113 64.2130283 -10.24204149 67.11737522 -8 70 C-5.85126973 68.88028321 -3.70574406 67.75515154 -1.5625 66.625 C-0.89669922 66.27501953 -0.23089844 65.92503906 0.45507812 65.56445312 C4.21923678 63.5617949 7.9043004 61.47836341 11.53515625 59.2421875 C12.28031494 58.78634277 13.02547363 58.33049805 13.79321289 57.86083984 C15.23677694 56.97065 16.67260601 56.06776127 18.09936523 55.15087891 C22.55023646 52.41609025 25.62358179 51.36042609 31 52 C33.4375 53.5 33.4375 53.5 35 56 C35.95653327 60.94208856 35.95653327 60.94208856 35 64 C29.41820103 69.92248152 20.92585955 73.66321965 13.9375 77.625 C12.21950195 78.60726562 12.21950195 78.60726562 10.46679688 79.609375 C8.27134539 80.8639187 6.07409191 82.11531597 3.87475586 83.36303711 C1.53082554 84.69773373 -0.79830336 86.05368538 -3.125 87.41796875 C-6.60275456 89.3316788 -8.10429741 89.87454548 -12 89 C-20.80064535 82.97943779 -28.89168173 73.68214588 -31 63 C-31.6953413 54.74950805 -30.74170112 46.48340224 -27 39 C-28.09699219 39.03480469 -29.19398437 39.06960938 -30.32421875 39.10546875 C-31.77863045 39.13361865 -33.2330588 39.16091752 -34.6875 39.1875 C-35.40873047 39.21263672 -36.12996094 39.23777344 -36.87304688 39.26367188 C-41.47207891 39.32667231 -44.37434807 38.88572296 -48 36 C-50 33 -50 33 -49.8125 29.5 C-48.9967963 25.98619943 -48.74686375 25.09142903 -46 23 C-44.04223633 22.64355469 -44.04223633 22.64355469 -41.83203125 22.671875 C-41.02056641 22.67703125 -40.20910156 22.6821875 -39.37304688 22.6875 C-38.52806641 22.708125 -37.68308594 22.72875 -36.8125 22.75 C-35.98685547 22.75515625 -35.16121094 22.7603125 -34.31054688 22.765625 C-29.13493338 22.83088096 -24.12286081 23.26731864 -19 24 C-18.75121094 23.18015625 -18.50242187 22.3603125 -18.24609375 21.515625 C-16.79656651 17.42604972 -14.99764 13.62738144 -13.0625 9.75 C-12.71509766 9.03070313 -12.36769531 8.31140625 -12.00976562 7.5703125 C-11.66751953 6.88195312 -11.32527344 6.19359375 -10.97265625 5.484375 C-10.66593994 4.86272461 -10.35922363 4.24107422 -10.04321289 3.60058594 C-7.45078915 -0.37693104 -4.34292161 -0.52115059 0 0 Z " fill="#000000" transform="translate(100,305)"/>
<path d="M0 0 C2.4375 1.5 2.4375 1.5 4 4 C5.09280692 11.04253349 2.84894019 16.12992683 -1 22 C-3.84925348 25.48771496 -6.85410817 28.77871643 -10 32 C-9.6390625 32.62648437 -9.278125 33.25296875 -8.90625 33.8984375 C-8.4421875 34.71570313 -7.978125 35.53296875 -7.5 36.375 C-7.0359375 37.18710938 -6.571875 37.99921875 -6.09375 38.8359375 C-5 41 -5 41 -5 43 C-4.34515625 42.7834375 -3.6903125 42.566875 -3.015625 42.34375 C6.22851749 39.52350314 15.83273288 38.29408351 25 42 C26.9375 43.125 26.9375 43.125 28 45 C28.70779977 50.57392317 28.70779977 50.57392317 28 53 C25.83895328 55.52195472 24.14380872 56.83603455 20.80810547 57.31420898 C18.25608404 57.3937215 15.73872059 57.34892876 13.1875 57.25 C11.86202148 57.22292969 11.86202148 57.22292969 10.50976562 57.1953125 C8.33937457 57.14838513 6.16954481 57.07664731 4 57 C4.65097656 58.07894531 5.30195313 59.15789062 5.97265625 60.26953125 C8.19444849 63.9519869 8.57238241 66.66624749 8 71 C6.9375 73.375 6.9375 73.375 5 75 C1.6875 76.0625 1.6875 76.0625 -2 76 C-5.78814114 73.45028962 -8.33955205 70.65420351 -11 67 C-15.15171198 73.0183428 -15.15171198 73.0183428 -18.625 79.4375 C-20 82 -20 82 -21.8125 83.4375 C-24.90633896 84.23305859 -26.94094704 83.89222378 -30 83 C-32.4375 81.5 -32.4375 81.5 -34 79 C-34.91334005 71.55395651 -31.04609529 64.95277294 -27 59 C-24.81407202 56.47743911 -22.52122007 54.18555467 -20 52 C-21.2125738 48.27566618 -22.50859979 44.62197194 -24 41 C-25.11375 41.33 -26.2275 41.66 -27.375 42 C-32.33174305 43.10061867 -37.19404917 43.2595261 -42.25 43.3125 C-43.03036621 43.32990234 -43.81073242 43.34730469 -44.61474609 43.36523438 C-49.23173168 43.36127215 -52.26298097 42.99944949 -56 40 C-58 37 -58 37 -57.8125 33.5 C-56.99454486 29.97650095 -56.75496675 29.09455352 -54 27 C-51.9152832 26.56762695 -51.9152832 26.56762695 -49.55078125 26.48828125 C-48.70322266 26.45283203 -47.85566406 26.41738281 -46.98242188 26.38085938 C-46.10134766 26.35830078 -45.22027344 26.33574219 -44.3125 26.3125 C-42.97348633 26.26125977 -42.97348633 26.26125977 -41.60742188 26.20898438 C-39.40507329 26.12654352 -37.20312062 26.05738449 -35 26 C-35.31066406 25.08347656 -35.62132812 24.16695312 -35.94140625 23.22265625 C-37.10823957 19.6704884 -37.9317819 16.75199527 -38 13 C-35.46514795 9.27693605 -33.92720439 8.18212943 -29.5 7.3125 C-24.6500641 8.26516598 -23.73789714 9.97368067 -21 14 C-20.505 14.99 -20.505 14.99 -20 16 C-16.79062684 14.93256531 -15.9621426 13.93858157 -14.1484375 10.99609375 C-13.56320312 9.82175781 -12.97796875 8.64742187 -12.375 7.4375 C-8.99434834 0.69834068 -7.76904511 -0.66974527 0 0 Z " fill="#000000" transform="translate(434,120)"/>
<path d="M0 0 C2.375 1.6875 2.375 1.6875 4 4 C4.54497255 7.6591014 4.37281156 9.38858904 2.4375 12.5625 C0.74535012 14.87268764 0.74535012 14.87268764 1.26904297 17.36206055 C2.52045799 21.87827274 4.84346921 25.74397235 7.125 29.8125 C7.81722656 31.13797852 7.81722656 31.13797852 8.5234375 32.49023438 C9.87410473 34.89286358 11.1202323 36.98251825 13 39 C16.60616298 39.65166704 16.60616298 39.65166704 20 39 C25.65116279 41.30232558 25.65116279 41.30232558 27 44 C27.5757427 50.21802111 27.5757427 50.21802111 25.4296875 53.1328125 C22.27114019 55.56012056 19.73412473 55.89236803 15.8125 56.5 C2.58766164 58.80806356 -7.52791391 64.51763298 -16.17578125 74.8515625 C-21.31303577 80.90186225 -21.31303577 80.90186225 -25.5 81.5 C-29 81 -29 81 -31.4375 79.5 C-33.58179355 76.06913033 -33.7674909 72.88585482 -33 69 C-32.37609375 68.13632812 -31.7521875 67.27265625 -31.109375 66.3828125 C-29.66094699 63.16172499 -29.66094699 63.16172499 -30.87915039 60.67822266 C-32.42005803 57.9537343 -34.07411934 55.3528828 -35.8125 52.75 C-36.96797491 50.95513688 -38.12047862 49.15835636 -39.26953125 47.359375 C-39.79135986 46.57014648 -40.31318848 45.78091797 -40.85083008 44.96777344 C-42 43 -42 43 -42 41 C-42.67546875 41.04640625 -43.3509375 41.0928125 -44.046875 41.140625 C-51.33844292 41.43565954 -51.33844292 41.43565954 -54.5625 39.3125 C-56.18160247 36.7078569 -56.85037993 35.06721138 -57 32 C-56.26211397 29.11553642 -55.82118096 27.51669813 -53.26171875 25.90625 C-50.64818897 24.85903254 -48.29374859 24.5292085 -45.5 24.1875 C-32.2065252 22.08256489 -21.72656847 15.98946806 -13.27734375 5.57421875 C-9.03173735 0.34186591 -6.76764363 -1.75958734 0 0 Z M-17.875 30.875 C-19.20144531 31.67550781 -19.20144531 31.67550781 -20.5546875 32.4921875 C-22.39251092 33.62541408 -24.20350391 34.80233594 -26 36 C-24.57250019 39.79049707 -22.83763458 43.27122456 -20.875 46.8125 C-20.33617187 47.78832031 -19.79734375 48.76414062 -19.2421875 49.76953125 C-18.83226562 50.50558594 -18.42234375 51.24164063 -18 52 C-14.56068166 50.6926925 -11.38699095 49.18963666 -8.1875 47.375 C-7.39730469 46.92898438 -6.60710937 46.48296875 -5.79296875 46.0234375 C-5.20128906 45.68570313 -4.60960937 45.34796875 -4 45 C-4.58765887 40.6007204 -6.23959717 37.48108589 -8.5 33.6875 C-9.44359375 32.08455078 -9.44359375 32.08455078 -10.40625 30.44921875 C-11.19515625 29.23685547 -11.19515625 29.23685547 -12 28 C-14.08352827 28 -16.16541904 29.83934081 -17.875 30.875 Z " fill="#000000" transform="translate(365,379)"/>
<path d="M0 0 C5.9672725 4.06391834 9.29018327 8.33836721 12 15 C12 15.66 12 16.32 12 17 C12.61746094 16.90460938 13.23492187 16.80921875 13.87109375 16.7109375 C21.32691534 15.73498521 27.99298552 15.86339794 34.5 20 C37.463596 22.3708768 37.8795961 23.09697073 38.375 26.8125 C38 30 38 30 35.875 32.875 C32.41629306 35.43143557 31.2102866 35.57788247 27 35 C25.68618956 34.60853811 24.37374946 34.2124564 23.0625 33.8125 C19.68085957 32.90554663 18.81619246 33.05122505 15.1875 34.0625 C11.70097393 36.18176094 10.43296476 37.20685799 9 41 C8.29388977 46.09964575 8.29388977 46.09964575 10.01953125 50.7421875 C11.75994829 52.85592662 13.67285164 54.71958712 15.75 56.5 C17.74536411 58.89443694 17.87736964 60.93424112 18 64 C15.86956522 68.56521739 15.86956522 68.56521739 13 70 C10.06582651 70.61128614 8.81669985 70.80183426 6 70 C0.18539918 65.94739943 -4.2468396 61.59685836 -7 55 C-7 54.01 -7 53.02 -7 52 C-7.67804688 52.10699219 -8.35609375 52.21398437 -9.0546875 52.32421875 C-17.51302127 53.41372712 -23.74640383 52.29039794 -31.25 48.25 C-37.80812505 42.88426132 -42.46888621 37.17540886 -43.3515625 28.57421875 C-43.75209524 18.08658524 -41.788132 11.02096281 -34.875 3.125 C-25.00575394 -5.93072903 -11.31112458 -6.26547587 0 0 Z M-25.3125 17.125 C-27.66592312 21.13453569 -27.92732295 24.45931523 -27 29 C-25.25996308 32.36597306 -22.87199023 34.47221644 -19.625 36.4375 C-14.8442586 37.46194458 -11.28858599 36.83042208 -7.1875 34.1875 C-3.95086792 30.95086792 -3.13315585 29.19840263 -2.625 24.625 C-3.07484583 20.27649031 -4.20209576 18.32723747 -7 15 C-9.78477587 12.80149274 -11.47767798 12.06529025 -15 11.625 C-19.57889256 12.19736157 -21.96822042 14.05187822 -25.3125 17.125 Z " fill="#000000" transform="translate(426,321)"/>
<path d="M0 0 C3.18282057 2.35251955 4.72096684 3.88386737 5.6875 7.75 C4.96162903 11.18139003 3.96786055 12.64338233 1.9375 15.4375 C-0.57365442 18.97765779 -0.57365442 18.97765779 -1.125 23.25 C0.9209572 30.09683546 0.9209572 30.09683546 3.0625 36.9140625 C5.35646387 44.4650269 6.76749531 52.95655589 3.375 60.375 C0.51934916 65.31669365 -3.69182341 68.85793936 -9 71 C-16.62898851 71.85763792 -22.8374054 71.79312913 -29 67 C-31.48836965 63.26744552 -31.54226552 61.41559065 -31 57 C-28.46946497 54.09732746 -26.96269068 53.10464029 -23.125 52.6875 C-20.8057466 52.91942534 -18.49335858 53.22229136 -16.1875 53.5625 C-15.135625 53.706875 -14.08375 53.85125 -13 54 C-11.78705915 53.02022992 -11.78705915 53.02022992 -11.98046875 51.171875 C-12.53497144 44.68523981 -14.114325 38.86139645 -16.16015625 32.6875 C-17 30 -17 30 -17 28 C-20.92323045 27.64629852 -24.24609071 27.73842453 -28 29 C-31.05545551 32.52086104 -32.66811141 36.53092509 -34.4375 40.8125 C-35.40867507 43.00947971 -36.38630941 45.20361805 -37.37109375 47.39453125 C-37.9887561 48.86176636 -37.9887561 48.86176636 -38.61889648 50.35864258 C-40.52943785 54.01254871 -42.51345171 56.46636728 -46.4375 57.875 C-49.58353374 58.02846506 -51.20764297 57.45237146 -54 56 C-55.58984375 53.8203125 -55.58984375 53.8203125 -56.9375 51.125 C-57.44023437 50.13886719 -57.94296875 49.15273437 -58.4609375 48.13671875 C-58.96882812 47.10160156 -59.47671875 46.06648438 -60 45 C-60.50789062 43.99582031 -61.01578125 42.99164063 -61.5390625 41.95703125 C-62.54950062 39.95429108 -63.55171977 37.94738168 -64.54541016 35.9362793 C-65.5063454 33.99650619 -66.47978732 32.06287294 -67.46630859 30.13598633 C-67.91828613 29.25193115 -68.37026367 28.36787598 -68.8359375 27.45703125 C-69.2386084 26.67561768 -69.6412793 25.8942041 -70.05615234 25.08911133 C-71.3919318 22.13249859 -71.73764237 20.17186219 -71 17 C-68.54405875 13.67725596 -67.0743356 12.22381992 -63 11.375 C-59.01751609 12.20468415 -57.22908627 13.740045 -55 17 C-49 27.70308789 -49 27.70308789 -49 31 C-48.34 31 -47.68 31 -47 31 C-46.79375 30.236875 -46.5875 29.47375 -46.375 28.6875 C-44.10456447 22.59860472 -41.514465 15.67631 -36 12 C-33.95043945 11.83984375 -33.95043945 11.83984375 -31.61328125 11.9375 C-21.73281331 12.43952666 -21.73281331 12.43952666 -12.97265625 8.75 C-11.06367051 6.24734458 -9.51826458 3.75006414 -8 1 C-5.11138291 -0.44430855 -3.20352299 -0.37688506 0 0 Z " fill="#000000" transform="translate(289,34)"/>
<path d="M0 0 C5.23444435 2.8367878 9.24042376 6.1714037 11 12 C11.86739197 19.14774905 11.34271546 25.11378928 7 31 C2.52968641 36.19741279 -3.78577163 39.40278856 -9.66918945 42.75366211 C-15.99194015 46.25288271 -15.99194015 46.25288271 -19.71484375 52.18359375 C-20.08007253 55.88073421 -20.24821246 58.36567928 -18.875 61.875 C-16.15699002 64.95541131 -14.0072715 66.70073407 -9.8515625 67.3203125 C-5.94053962 67.51521397 -3.81470267 67.49611745 -0.3828125 65.40625 C2.53453514 62.46020714 3.3887664 60.002469 4.625 56.0625 C8.05658669 45.29560887 8.05658669 45.29560887 13 42 C18.72259799 42.22009992 22.37575093 43.82649573 27 47 C29.22810502 49.69229356 28.99983051 51.0048304 28.875 54.5625 C28 58 28 58 26.125 59.875 C24 61 24 61 21 62 C19.62780899 64.51875822 19.62780899 64.51875822 18.375 67.5625 C14.98412137 74.63948301 10.54199816 80.11062886 3.1640625 83.1796875 C-6.60027078 85.71118131 -15.74765803 84.78591236 -24.47265625 79.76171875 C-31.23804045 75.04581724 -34.94059538 68.98164729 -37 61 C-38.00281786 52.90985141 -36.98081225 46.41931368 -32.4296875 39.671875 C-27.0174095 32.92244597 -20.56605961 28.94939237 -13.03295898 24.8425293 C-8.45521432 22.46243565 -8.45521432 22.46243565 -5.96875 18.17578125 C-5.9790625 17.45777344 -5.989375 16.73976563 -6 16 C-6.63808594 15.73445313 -7.27617187 15.46890625 -7.93359375 15.1953125 C-8.75988281 14.84210938 -9.58617187 14.48890625 -10.4375 14.125 C-11.26121094 13.77695312 -12.08492187 13.42890625 -12.93359375 13.0703125 C-15 12 -15 12 -16 10 C-16.45723173 3.8273717 -16.45723173 3.8273717 -14.6875 0.625 C-10.40816619 -3.49583996 -5.0932178 -1.65002174 0 0 Z " fill="#000000" transform="translate(167,373)"/>
<path d="M0 0 C1.71484375 1.57421875 1.71484375 1.57421875 2.9375 3.6875 C3.41316406 4.49445312 3.88882813 5.30140625 4.37890625 6.1328125 C4.91386719 7.07898437 5.44882813 8.02515625 6 9 C6.71371293 10.14556462 7.43138464 11.28866936 8.15234375 12.4296875 C8.89487699 13.63961527 9.63576876 14.85055198 10.375 16.0625 C11.06335938 17.18785156 11.75171875 18.31320313 12.4609375 19.47265625 C14.34716858 23.79566808 14.37555988 26.33515095 14 31 C12.40970955 33.73883355 11.16534703 33.94967699 8.125 34.875 C4.38521162 35.02459154 2.95526312 34.21644734 0 32 C-0.66 31.34 -1.32 30.68 -2 30 C-3.32 34.62 -4.64 39.24 -6 44 C-4.68 44.33 -3.36 44.66 -2 45 C0.34549674 48.51824511 0.57991403 49.85775694 0 54 C-3.06137321 57.93605127 -5.16384748 59.24409717 -10 60 C-10.16081055 60.64549805 -10.32162109 61.29099609 -10.48730469 61.95605469 C-11.22716246 64.89121086 -11.98831342 67.82043623 -12.75 70.75 C-13.00265625 71.76578125 -13.2553125 72.7815625 -13.515625 73.828125 C-13.90234375 75.29765625 -13.90234375 75.29765625 -14.296875 76.796875 C-14.52729492 77.69760742 -14.75771484 78.59833984 -14.99511719 79.52636719 C-16.192848 82.47471718 -17.52986478 84.00950268 -20 86 C-23.63019782 86.45377473 -26.02317947 86.43699866 -29.375 84.9375 C-31.81341678 82.03015692 -31.76709262 79.7782753 -32 76 C-31.4335411 72.65373564 -30.5201962 69.44066647 -29.5625 66.1875 C-29.08282391 64.49400164 -28.60487205 62.80001365 -28.12890625 61.10546875 C-27.91306885 60.36449951 -27.69723145 59.62353027 -27.47485352 58.86010742 C-26.91754993 56.99698492 -26.91754993 56.99698492 -27 55 C-27.639375 54.62875 -28.27875 54.2575 -28.9375 53.875 C-31.63938035 51.41874513 -31.94993169 49.57766726 -32.2265625 46.0078125 C-32 44 -32 44 -29.9375 41 C-26.59620591 38.72507636 -24.95466314 38.54015545 -21 39 C-20.87625 37.80375 -20.7525 36.6075 -20.625 35.375 C-20.17674946 31.72403187 -19.29553163 28.45475101 -18 25 C-18.66 25.33 -19.32 25.66 -20 26 C-27.08571429 26.57142857 -27.08571429 26.57142857 -30.5 24.4375 C-32.61006839 21.00863886 -32.62491523 18.95779649 -32 15 C-27.94054692 10.01456169 -22.69196317 7.20598401 -17.125 4.125 C-16.25230469 3.61453125 -15.37960938 3.1040625 -14.48046875 2.578125 C-9.35726182 -0.27238111 -5.87420023 -2.02325206 0 0 Z " fill="#000000" transform="translate(176,50)"/>
<path d="M0 0 C6.28607931 2.10831408 11.18008401 5.125354 14.875 10.69921875 C18.14592564 17.38871598 18.54058443 23.98515763 16.703125 31.125 C16 33 16 33 14 36 C14.28309796 38.68943065 14.92741384 40.83214451 16 43.3125 C18.49879705 50.02801708 18.51004358 56.32211661 16 63 C12.45386581 69.86986275 7.26595843 73.56304022 0 76 C-4.16298736 76.81811752 -7.14719562 76.42640219 -11 74.5 C-13.4261132 71.4673585 -13.74246992 69.70807613 -13.48046875 65.8984375 C-13 64 -13 64 -10.9375 61.625 C-7.69776181 59.83280441 -4.56366485 58.95944823 -1 58 C0.39935013 55.20129973 0.25265405 53.09501208 0 50 C-0.99576837 48.18628249 -0.99576837 48.18628249 -3 47 C-5.52385122 46.71705452 -7.8133667 46.60641384 -10.3359375 46.62890625 C-11.80729396 46.61152086 -13.27864807 46.59393651 -14.75 46.57617188 C-17.06287003 46.56610952 -19.37558558 46.56250043 -21.68847656 46.56420898 C-23.92559499 46.56062845 -26.16153043 46.53324639 -28.3984375 46.50390625 C-29.08505463 46.51208878 -29.77167175 46.5202713 -30.47909546 46.52870178 C-35.23859377 46.45528889 -37.66524458 45.37848863 -41 42 C-41.6640625 40 -41.6640625 40 -41.625 38 C-41.63789063 37.34 -41.65078125 36.68 -41.6640625 36 C-40.61286956 32.83405422 -38.76253285 31.79532448 -36 30 C-33.32906449 29.62502549 -31.06075774 29.46436646 -28.3984375 29.49609375 C-27.68015778 29.48667252 -26.96187805 29.47725128 -26.22183228 29.46754456 C-23.939261 29.43898643 -21.65773519 29.43581372 -19.375 29.4375 C-17.08527746 29.43389224 -14.79630891 29.42438724 -12.50674438 29.39674377 C-11.08559738 29.37995165 -9.66420119 29.37708326 -8.24301147 29.38975525 C-5.38673708 29.35924112 -3.45346401 29.31300803 -1.06494141 27.66430664 C0.6099112 25.04682149 0.37774509 23.02196071 0 20 C-1.73498327 17.14238049 -3.23689913 16.93231454 -6.5 16 C-11.55113636 14.55681818 -11.55113636 14.55681818 -13 12 C-13.39296656 8.90538837 -13.61866635 6.95651131 -13 4 C-9.47885429 -0.40143214 -5.34338858 -1.05009202 0 0 Z " fill="#000000" transform="translate(458,218)"/>
<path d="M0 0 C5.17109681 1.92631918 8.89808402 5.07495453 11.3125 10.0546875 C13.84215829 17.21247061 13.16775175 23.16995299 10 30 C6.26906459 36.6845926 -1.73284702 40.0053559 -8.78515625 42.15234375 C-21.41344746 45.05771711 -35.61925696 43.84556763 -47.125 37.90234375 C-49.42693596 36.33041989 -50.79743982 34.75733322 -51.5234375 32.04296875 C-51.81512246 28.29967844 -51.29625991 26.34854107 -48.875 23.5 C-45.36856685 21.67055662 -43.92137228 21.40809475 -40 22 C-38.51280194 22.64855254 -37.03448502 23.31762284 -35.5625 24 C-27.78219635 27.30751184 -18.20760749 27.52825039 -10.25 24.5625 C-9.1775 24.046875 -8.105 23.53125 -7 23 C-6.01 22.67 -5.02 22.34 -4 22 C-4 20.02 -4 18.04 -4 16 C-5.0725 15.938125 -6.145 15.87625 -7.25 15.8125 C-11 15 -11 15 -13.5 12.875 C-15.47798094 9.08386986 -15.13111674 7.07202027 -14 3 C-10.56647357 -1.67220369 -5.23674716 -0.75117275 0 0 Z " fill="#000000" transform="translate(276,437)"/>
<path d="M0 0 C2.17468785 2.73389329 2.61730848 3.50545884 2.875 6.8125 C2.1875 10.75 2.1875 10.75 0.0625 13.25 C-3.44393315 15.07944338 -4.89112772 15.34190525 -8.8125 14.75 C-10.29969806 14.10144746 -11.77801498 13.43237716 -13.25 12.75 C-21.59925462 9.22391962 -31.15955952 9.46719222 -39.6875 12.375 C-42.02823496 13.35802295 -42.02823496 13.35802295 -43.8125 14.75 C-45.11360818 17.86095637 -45.11360818 17.86095637 -44.8125 20.75 C-43.74 20.811875 -42.6675 20.87375 -41.5625 20.9375 C-37.8125 21.75 -37.8125 21.75 -35.3125 23.875 C-33.33451906 27.66613014 -33.68138326 29.67797973 -34.8125 33.75 C-36.50110257 36.04778198 -37.40564582 36.67112681 -40.23046875 37.21875 C-47.01893221 37.29534761 -51.7416737 36.46204142 -56.8125 31.75 C-61.03821425 26.9100831 -62.06931607 21.05187138 -61.8125 14.75 C-60.7348772 9.67987307 -58.58062289 5.32971675 -54.8125 1.75 C-39.30065746 -8.28265945 -16.0233082 -10.9418424 0 0 Z " fill="#000000" transform="translate(284.8125,415.25)"/>
<path d="M0 0 C4.09671715 0.58524531 4.98370158 1.31582235 7.5 4.5 C8.30928355 8.29566948 8.10308629 12.12759026 8.0625 16 C8.08634766 17.04542969 8.11019531 18.09085938 8.13476562 19.16796875 C8.12013401 26.78616153 8.12013401 26.78616153 5.19921875 30.1484375 C2.05058078 31.7250348 -1.1065808 32.58638714 -4.5 33.5 C-5.89935013 36.29870027 -5.75265405 38.40498792 -5.5 41.5 C-3.76501673 44.35761951 -2.26310087 44.56768546 1 45.5 C5.4753074 46.77865926 5.4753074 46.77865926 7.5 49.5 C8.16466702 53.28048689 8.00937602 57.10505267 8 60.9375 C8.02835938 61.98744141 8.05671875 63.03738281 8.0859375 64.11914062 C8.10547746 71.78368938 8.10547746 71.78368938 5.1953125 75.2265625 C1.52116865 76.96246235 -0.62830362 76.57547122 -4.5 75.5 C-6.203125 74.3046875 -6.203125 74.3046875 -7.5 72.5 C-7.6953125 69.79296875 -7.6953125 69.79296875 -7.625 66.6875 C-7.80914778 62.1218686 -7.80914778 62.1218686 -10.41796875 58.58984375 C-12.00920781 57.61641039 -13.62746017 56.68577663 -15.26953125 55.80078125 C-19.37710718 53.40529476 -21.01572894 49.95281317 -22.5 45.5 C-22.64648082 43.23236426 -22.7209626 40.95967634 -22.75 38.6875 C-22.77578125 37.48480469 -22.8015625 36.28210938 -22.828125 35.04296875 C-22.28497311 29.17822155 -19.50493278 24.72742905 -15.5 20.5 C-14.27690497 19.96506393 -13.04722175 19.44502366 -11.8125 18.9375 C-9.89925764 18.08340743 -9.89925764 18.08340743 -8.5 16.5 C-7.90664069 13.39795241 -7.81200246 10.53061775 -7.86328125 7.375 C-7.5 4.5 -7.5 4.5 -5.69921875 2.15625 C-3.5 0.5 -3.5 0.5 0 0 Z " fill="#000000" transform="translate(58.5,217.5)"/>
<path d="M0 0 C2.21484375 3.0390625 2.21484375 3.0390625 3.9375 6.625 C4.23978516 7.23601562 4.54207031 7.84703125 4.85351562 8.4765625 C5.59052423 9.97397682 6.29830973 11.485714 7 13 C8.02480469 12.96519531 9.04960937 12.93039063 10.10546875 12.89453125 C11.46612936 12.86637965 12.8268078 12.83908096 14.1875 12.8125 C14.86103516 12.78736328 15.53457031 12.76222656 16.22851562 12.73632812 C20.71667989 12.67064767 23.54444731 13.07981462 27 16 C28.80078125 18.91796875 28.80078125 18.91796875 30.3125 22.1875 C30.82425781 23.27417969 31.33601563 24.36085938 31.86328125 25.48046875 C32.23839844 26.31191406 32.61351562 27.14335938 33 28 C33.95261719 27.97679688 34.90523438 27.95359375 35.88671875 27.9296875 C37.14097656 27.91164063 38.39523437 27.89359375 39.6875 27.875 C40.92886719 27.85179688 42.17023438 27.82859375 43.44921875 27.8046875 C46.86370861 27.99250322 49.01567557 28.37609734 52 30 C54.48038907 33.7205836 54.46337203 35.59796571 54 40 C52.17665887 42.56618381 50.97247348 43.74091701 47.91796875 44.5546875 C43.95299515 45.15978387 40.00052095 45.48373156 36 45.75 C34.80890625 45.85248047 34.80890625 45.85248047 33.59375 45.95703125 C28.85614995 46.26497525 25.75710475 46.2643697 22 43 C20.19921875 40.37109375 20.19921875 40.37109375 18.6875 37.4375 C18.17574219 36.46683594 17.66398437 35.49617188 17.13671875 34.49609375 C16 32 16 32 16 30 C14.97519531 30.10699219 13.95039063 30.21398437 12.89453125 30.32421875 C11.53393374 30.44620335 10.17325169 30.56724753 8.8125 30.6875 C8.13896484 30.76033203 7.46542969 30.83316406 6.77148438 30.90820312 C3.71085728 31.16201123 1.26309879 31.08950783 -1.65234375 30.09765625 C-5.24946373 26.88359065 -7.17617733 22.99933765 -9.375 18.75 C-10.06916016 17.49896484 -10.06916016 17.49896484 -10.77734375 16.22265625 C-13.47098431 11.10071882 -14.69121846 7.81356346 -13 2 C-9.37624983 -2.94147751 -5.2399018 -2.17418538 0 0 Z " fill="#000000" transform="translate(325,80)"/>
<path d="M0 0 C2.21484375 3.0390625 2.21484375 3.0390625 3.9375 6.625 C4.23978516 7.23601563 4.54207031 7.84703125 4.85351562 8.4765625 C5.59052423 9.97397682 6.29830973 11.485714 7 13 C7.95261719 12.97679688 8.90523438 12.95359375 9.88671875 12.9296875 C11.14097656 12.91164063 12.39523437 12.89359375 13.6875 12.875 C15.54955078 12.84019531 15.54955078 12.84019531 17.44921875 12.8046875 C20.97513061 12.99863205 23.00709719 13.15505991 26 15 C27.48188176 17.22998842 28.65918851 19.24199878 29.8125 21.625 C30.27946289 22.54152344 30.27946289 22.54152344 30.75585938 23.4765625 C31.51796252 24.97731946 32.2609242 26.48776998 33 28 C33.95261719 27.97679688 34.90523438 27.95359375 35.88671875 27.9296875 C37.14097656 27.91164063 38.39523437 27.89359375 39.6875 27.875 C40.92886719 27.85179688 42.17023438 27.82859375 43.44921875 27.8046875 C46.86370861 27.99250322 49.01567557 28.37609734 52 30 C54.48038907 33.7205836 54.46337203 35.59796571 54 40 C52.17665887 42.56618381 50.97247348 43.74091701 47.91796875 44.5546875 C43.95299515 45.15978387 40.00052095 45.48373156 36 45.75 C34.80890625 45.85248047 34.80890625 45.85248047 33.59375 45.95703125 C28.85614995 46.26497525 25.75710475 46.2643697 22 43 C20.19921875 40.37109375 20.19921875 40.37109375 18.6875 37.4375 C18.17574219 36.46683594 17.66398437 35.49617188 17.13671875 34.49609375 C16 32 16 32 16 30 C14.97519531 30.10699219 13.95039063 30.21398437 12.89453125 30.32421875 C11.53393374 30.44620335 10.17325169 30.56724753 8.8125 30.6875 C8.13896484 30.76033203 7.46542969 30.83316406 6.77148438 30.90820312 C3.71085728 31.16201123 1.26309879 31.08950783 -1.65234375 30.09765625 C-5.24946373 26.88359065 -7.17617733 22.99933765 -9.375 18.75 C-10.06916016 17.49896484 -10.06916016 17.49896484 -10.77734375 16.22265625 C-13.47098431 11.10071882 -14.69121846 7.81356346 -13 2 C-9.37624983 -2.94147751 -5.2399018 -2.17418538 0 0 Z " fill="#000000" transform="translate(340,54)"/>
<path d="M0 0 C3.00264086 2.20549645 3.90094526 3.40113128 4.5146637 7.11157227 C4.52396156 8.94546509 4.52396156 8.94546509 4.53344727 10.81640625 C4.54206284 11.49331512 4.55067841 12.170224 4.55955505 12.86764526 C4.58221233 15.0996552 4.57547815 17.33040942 4.56640625 19.5625 C4.57164174 21.11662163 4.57791795 22.67074008 4.58518982 24.22485352 C4.59559328 27.4798072 4.59103335 30.7343237 4.57641602 33.98925781 C4.55922106 38.15938979 4.58273063 42.32814484 4.61790562 46.49812317 C4.63987083 49.70667643 4.63844056 52.91489969 4.6301403 56.12350464 C4.62932041 57.66089387 4.63619115 59.19830724 4.65091133 60.73562622 C4.66834484 62.88580885 4.65383109 65.03351075 4.63110352 67.18359375 C4.62966087 69.01748657 4.62966087 69.01748657 4.62818909 70.88842773 C4 74 4 74 1.68711853 76.42993164 C-1 78 -1 78 -4.625 77.9375 C-9.09551117 76.69569134 -9.09551117 76.69569134 -11 74 C-11.38768005 71.00868225 -11.38768005 71.00868225 -11.40405273 67.29711914 C-11.41091599 66.62035629 -11.41777924 65.94359344 -11.42485046 65.24632263 C-11.44315266 63.00905377 -11.43927629 60.77248392 -11.43359375 58.53515625 C-11.43815414 56.97960685 -11.44345929 55.42405946 -11.44947815 53.86851501 C-11.45841608 50.60765399 -11.45597877 47.34703778 -11.44604492 44.08618164 C-11.43455763 39.90836522 -11.45475868 35.73139432 -11.48396206 31.553689 C-11.50231384 28.34088273 -11.50203365 25.12827942 -11.49632454 21.91543388 C-11.49617118 20.37525688 -11.50222776 18.83506623 -11.51461601 17.29493904 C-11.52950499 15.14017953 -11.51886685 12.98698608 -11.50170898 10.83227539 C-11.50154282 9.60666397 -11.50137665 8.38105255 -11.50120544 7.11830139 C-10.42110703 0.39835767 -6.28750909 -0.89821558 0 0 Z " fill="#000000" transform="translate(92,216)"/>
</svg>
