 <svg xmlns="http://www.w3.org/2000/svg" width="52" height="47.714"
                                                viewBox="0 0 52 47.714">
                                                <defs>
                                                    <path fill="none" d="M0 0h52v47.714H0z" />
                                                </defs>
                                                <g clip-path="url(#KM)">
                                                    <path
                                                        d="M29.961 42.386c5.838-7.4 6.3-14.772 1.347-22.177a22.5 22.5 0 0 0-3.681 2.3 12.8 12.8 0 0 1 1.337 13.619 12.98 12.98 0 0 1-24.478-7.63 12.57 12.57 0 0 1 7.088-9.784c2.394-1.238 5.131-1.651 7.784-1.175.36.074.732-.053.972-.332.965-.921 1.983-1.787 2.98-2.673.1-.091.211-.178.342-.294a16.69 16.69 0 0 0-8.12-1.129 16.62 16.62 0 0 0-10.007 4.577A16.81 16.81 0 0 0 .371 33.812a16.33 16.33 0 0 0 8.1 11.393c5.161 3.188 11.637 3.354 16.954.433a21.92 21.92 0 0 0 4.535-3.25"
                                                        fill="#130708" />
                                                    <path
                                                        d="M51.896 28.537a27.19 27.19 0 0 0-.523-2.736 17.11 17.11 0 0 0-11.39-11.929c-.138-.047-.269-.113-.46-.2l5.975-7.167-4.19-6.273a.69.69 0 0 0-.51-.228q-6.145-.019-12.291 0a.81.81 0 0 0-.552.322l-1.5 2.232L23.827 6.5l5.992 7.2-.881.294a17.33 17.33 0 0 0-11.456 18.552c.34 2.801 1.386 5.47 3.04 7.756a.5.5 0 0 0 .432.17 10.06 10.06 0 0 0 3.5-2.056c-4.241-5.372-3.563-13.117 1.547-17.67 1.18-.998 2.492-1.828 3.9-2.466 5.059-1.993 10.825-.622 14.445 3.436s4.328 9.941 1.773 14.742-7.831 7.5-13.218 6.763a10.65 10.65 0 0 1-.626 1.668l-.985 2.191-.11.25a17.33 17.33 0 0 0 20.2-12.54c.283-1.124.414-2.285.614-3.429v-2.234l-.1-.587M40.94 3.572l1.923 2.9h-2.992l1.069-2.9m-1.815-1.359l-1.038 2.82-1.582-2.82zm-4.463 1.146l1.732 3.1h-3.481l1.749-3.108M32.819 2.2l-1.582 2.811L30.213 2.2zm-4.428 1.366l1.063 2.892h-2.989l1.925-2.892m3.112 8.768L28.46 8.683c.62 0 1.118-.013 1.616.01a.4.4 0 0 1 .273.229l1.241 3.352-.093.056m5.085-3.23l-1.288 3.525c-.093.258-.173.464-.523.4-.294-.054-.6.1-.753-.369-.43-1.312-.934-2.6-1.423-3.938h4.092c-.037.147-.059.269-.1.386m1.126 3.231l1.267-3.4a.44.44 0 0 1 .322-.225c.471-.025.943-.01 1.557-.01l-3.053 3.672-.094-.034"
                                                        fill="#ee4e5e" />
                                                </g>
                                            </svg>
