 <svg xmlns="http://www.w3.org/2000/svg" width="55.105" height="55.701"
                                                viewBox="0 0 55.105 55.701">
                                                <g transform="matrix(.966 .259 -.259 .966 11.599 -1.075)">
                                                    <path
                                                        d="M45.794 42.882h0a1.93 1.93 0 0 1-1.932 1.932h-3.668v-3.863h3.668a1.93 1.93 0 0 1 1.932 1.932M0 42.882h0a1.93 1.93 0 0 1 1.932-1.932H5.6v3.859H1.932A1.93 1.93 0 0 1 0 42.882"
                                                        fill="#130708" />
                                                    <path
                                                        d="M41.642 39.049v7.652a.91.91 0 0 1-1.067.894c-9.567-1.645-25.279-1.687-35.355.013a.91.91 0 0 1-1.066-.894v-7.66a.91.91 0 0 1 1.068-.894c9.566 1.653 25.27 1.7 35.354-.005a.91.91 0 0 1 1.066.894"
                                                        fill="#ee4e5e" />
                                                    <path
                                                        d="M45.794 4.74h0a1.93 1.93 0 0 1-1.932 1.932h-3.668V2.808h3.668a1.93 1.93 0 0 1 1.932 1.932M0 4.74h0a1.93 1.93 0 0 1 1.932-1.932H5.6v3.86H1.932A1.93 1.93 0 0 1 0 4.74"
                                                        fill="#130708" />
                                                    <g fill="#ee4e5e">
                                                        <path
                                                            d="M41.642.906v7.652a.91.91 0 0 1-1.067.894c-9.567-1.645-25.279-1.688-35.356.013a.91.91 0 0 1-1.066-.894V.911a.91.91 0 0 1 .325-.695.91.91 0 0 1 .741-.198c9.566 1.653 25.27 1.7 35.354-.005a.91.91 0 0 1 1.066.894m-11.155 25.77L24.12 15.655a1.31 1.31 0 0 0-2.264 0l-6.364 11.022a1.31 1.31 0 0 0 0 1.307c.233.405.665.653 1.132.653h12.728a1.31 1.31 0 0 0 1.132-.653c.234-.404.234-.902 0-1.307m-13.859.653l6.364-11.022 6.364 11.022z" />
                                                        <path
                                                            d="M15.31 20.928l6.364 11.022a1.31 1.31 0 0 0 2.264 0l6.364-11.022a1.31 1.31 0 0 0 0-1.307c-.233-.405-.665-.653-1.132-.653H16.442a1.31 1.31 0 0 0-1.132.653c-.234.404-.234.902 0 1.307m13.855-.658l-6.364 11.022-6.359-11.022zm-4.854 3.712c0 .832-.674 1.506-1.506 1.506s-1.506-.674-1.506-1.506.674-1.506 1.506-1.506a1.51 1.51 0 0 1 1.065.441 1.5 1.5 0 0 1 .441 1.065" />
                                                    </g>
                                                    <path
                                                        d="M39.189 10.82c-.067.5-.035.19 0-.082-5.382-.736-10.809-1.084-16.241-1.041a115.11 115.11 0 0 0-16.78 1.11 128.91 128.91 0 0 1-.116 25.994 110.63 110.63 0 0 0 16.707 1.131 115.16 115.16 0 0 0 16.538-1.081c-.988-9.974-1.329-16.7-.109-26.031M31.55 28.601c-.455.785-1.293 1.268-2.2 1.269h-2.79l-1.557 2.7a2.54 2.54 0 0 1-4.4 0l-1.557-2.7h-2.42a2.54 2.54 0 0 1-2.2-3.808l1.212-2.1-1.4-2.418a2.54 2.54 0 0 1 2.2-3.808h2.793l1.557-2.7a2.54 2.54 0 0 1 4.4 0l1.557 2.7h2.424a2.54 2.54 0 0 1 2.2 3.808l-1.212 2.1 1.4 2.418c.452.786.452 1.753 0 2.539"
                                                        fill="#130708" />
                                                    <path
                                                        d="M30.485 26.677l-1.752-3.035 1.568-2.715a1.31 1.31 0 0 0 0-1.307c-.233-.405-.665-.653-1.132-.653h-3.135l-1.912-3.312a1.31 1.31 0 0 0-2.264 0l-1.912 3.312h-3.5c-.467 0-.898.25-1.131.654s-.233.902 0 1.306l1.752 3.035-1.568 2.715c-.233.404-.233.902 0 1.306a1.31 1.31 0 0 0 1.131.654h3.135l1.912 3.312a1.31 1.31 0 0 0 2.263 0l1.912-3.312h3.5a1.31 1.31 0 0 0 1.132-.653c.234-.404.234-.902 0-1.307m-1.316-6.4l-1.19 2.062-1.19-2.062zm-6.179-3.966l1.535 2.659h-3.071zm-6.548 3.966h2.75l-1.375 2.381zm.184 7.056l1.19-2.062 1.19 2.062zm6.179 3.966L21.27 28.64h3.071zm2.29-3.966h-4.579l-1.945-3.368 2.129-3.688h4.579l1.945 3.368zm1.509 0l1.375-2.381 1.375 2.381zm-3.799-4.857c-.832 0-1.506.674-1.506 1.506s.674 1.506 1.506 1.506 1.506-.674 1.506-1.506a1.51 1.51 0 0 0-.441-1.065 1.5 1.5 0 0 0-1.065-.441"
                                                        fill="#ee4e5e" />
                                                </g>
                                            </svg>
