 <svg xmlns="http://www.w3.org/2000/svg" width="56" height="48.781"
                                                viewBox="0 0 56 48.781">
                                                <g id="pooja" transform="translate(0 -33.001)">
                                                    <path id="Path_110152" data-name="Path 110152"
                                                        d="M229.606,175.83q-.007-.164-.007-.328a10.123,10.123,0,0,1,2.231-6.35,21.024,21.024,0,0,1,.377-12.023l1.755-5.266a21.263,21.263,0,0,1-2.157,1.581,14.743,14.743,0,0,0-2.921,22.388Z"
                                                        transform="translate(-200.396 -105.861)" />
                                                    <path id="Path_110153" data-name="Path 110153"
                                                        d="M316.363,129.83a10.113,10.113,0,0,1,3.937.793,9.932,9.932,0,0,1,1.32-.451,17.758,17.758,0,0,0-.807-7.506l-3.271-9.814a1.243,1.243,0,0,0-2.358,0l-3.271,9.814a17.718,17.718,0,0,0-.663,8.545A10.1,10.1,0,0,1,316.363,129.83Z"
                                                        transform="translate(-276.988 -70.36)" fill="#ee4e5e" />
                                                    <path id="Path_110154" data-name="Path 110154"
                                                        d="M415.821,163.43q0,.8-.06,1.586a10.129,10.129,0,0,1,6.048,2.548,14.973,14.973,0,0,0,.137-2.026,14.727,14.727,0,0,0-6.715-12.38,22.377,22.377,0,0,1-2.256-1.677l1.77,5.308A20.949,20.949,0,0,1,415.821,163.43Z"
                                                        transform="translate(-367.805 -105.522)" />
                                                    <path id="Path_110155" data-name="Path 110155"
                                                        d="M435.716,312.221c.005-.109.008-.218.008-.328A6.9,6.9,0,0,0,428.833,305c-.13,0-.26,0-.389.011a10.134,10.134,0,0,1,2.686,6.88q0,.164-.007.328Z"
                                                        transform="translate(-381.583 -242.251)" />
                                                    <path id="Path_110156" data-name="Path 110156"
                                                        d="M303.895,305A6.9,6.9,0,0,0,297,311.893c0,.11,0,.219.008.328h13.766c.005-.109.008-.218.008-.328A6.9,6.9,0,0,0,303.895,305Z"
                                                        transform="translate(-264.519 -242.251)" fill="#ee4e5e" />
                                                    <path id="Path_110157" data-name="Path 110157"
                                                        d="M54.363,401H1.645A1.641,1.641,0,0,0,0,402.643a6.9,6.9,0,0,0,6.891,6.891H49.113A6.9,6.9,0,0,0,56,402.643,1.641,1.641,0,0,0,54.363,401Z"
                                                        transform="translate(-0.003 -327.751)" fill="#ee4e5e" />
                                                    <path id="Path_110158" data-name="Path 110158"
                                                        d="M5.677,57.5h-1.3a1.64,1.64,0,0,0-1.6,1.984L5.018,69.97H19.483L21.73,59.485a1.64,1.64,0,0,0-1.6-1.984H18.813l5.512-18.9a1.641,1.641,0,1,0-3.15-.919L15.395,57.5h-1.5V34.642a1.641,1.641,0,1,0-3.281,0V57.5H9.1L3.214,37.675a1.641,1.641,0,1,0-3.146.934Z"
                                                        transform="translate(0)" />
                                                </g>
                                            </svg>
