<svg xmlns="http://www.w3.org/2000/svg" shape-rendering="geometricPrecision" text-rendering="geometricPrecision" image-rendering="optimizeQuality" fill-rule="evenodd" clip-rule="evenodd" viewBox="0 0 512 512"><path fill-rule="nonzero" d="M256 0c70.68 0 134.69 28.66 181.01 74.99C483.34 121.31 512 185.32 512 256c0 70.69-28.66 134.69-74.99 181.01C390.69 483.34 326.69 512 256 512c-70.68 0-134.69-28.66-181.01-74.99C28.66 390.69 0 326.68 0 256c0-70.68 28.66-134.69 74.99-181.01C121.31 28.66 185.32 0 256 0zm-86.36 235.39l14.64-32.98h55.23c-3.49-11.7-17.18-18.3-28.64-18.3h-41.23l14.64-32.98h158.08l-14.64 32.98h-38.18c5.06 3.89 10.49 11.9 11.44 18.3h41.38l-14.64 32.98h-29.94c-9.66 24.6-39.13 41.31-64.27 44.93l83.06 85.51H250.9l-74.06-81.26v-30.29h32.78c3.15 0 6.25-.49 9.3-1.55 7.99-2.7 16.62-9 19.29-17.34h-68.57zM413.08 98.91C372.89 58.72 317.35 33.86 256 33.86c-61.35 0-116.89 24.86-157.09 65.05-40.19 40.2-65.05 95.74-65.05 157.09 0 61.35 24.86 116.89 65.05 157.09 40.2 40.19 95.74 65.05 157.09 65.05 61.35 0 116.89-24.86 157.08-65.05 40.2-40.19 65.06-95.74 65.06-157.09 0-61.35-24.86-116.89-65.06-157.09z"/></svg>