<svg xmlns="http://www.w3.org/2000/svg" shape-rendering="geometricPrecision" text-rendering="geometricPrecision" image-rendering="optimizeQuality" fill-rule="evenodd" clip-rule="evenodd" viewBox="0 0 512 512"><path d="M256 59.55c108.49 0 196.45 87.96 196.45 196.45S364.49 452.45 256 452.45 59.55 364.49 59.55 256 147.51 59.55 256 59.55zM256 0c70.68 0 134.69 28.66 181.01 74.98C483.34 121.31 512 185.31 512 256c0 70.69-28.66 134.69-74.99 181.01C390.69 483.34 326.69 512 256 512s-134.69-28.66-181.02-74.99C28.66 390.69 0 326.68 0 256c0-70.69 28.66-134.69 74.98-181.02C121.31 28.66 185.31 0 256 0zm163.27 92.72C377.49 50.94 319.76 25.09 256 25.09c-63.77 0-121.5 25.85-163.28 67.63C50.94 134.5 25.09 192.23 25.09 256c0 63.76 25.85 121.49 67.63 163.27C134.5 461.06 192.23 486.9 256 486.9c63.77 0 121.5-25.84 163.27-67.63 41.79-41.77 67.63-99.5 67.63-163.27 0-63.77-25.84-121.5-67.63-163.28zM181.09 235.97l12.7-28.61h47.9c-3.02-10.16-14.89-15.87-24.84-15.87h-35.76l12.7-28.61h137.12l-12.7 28.61h-33.12c4.39 3.37 9.1 10.32 9.93 15.87h35.89l-12.7 28.61h-25.97c-8.38 21.34-33.95 35.83-55.75 38.97l72.05 74.18h-56.96l-64.25-70.49v-26.27h28.44c2.73 0 5.42-.44 8.06-1.35 6.93-2.34 14.42-7.81 16.74-15.04h-59.48z"/></svg>