<svg id="youtube" xmlns="http://www.w3.org/2000/svg" width="69.546" height="48.693" viewBox="0 0 69.546 48.693">
  <path id="Path_137915" data-name="Path 137915" d="M68.113,7.619a8.713,8.713,0,0,0-6.129-6.13C56.541,0,34.772,0,34.772,0S13,0,7.561,1.433A8.891,8.891,0,0,0,1.432,7.619C0,13.061,0,24.347,0,24.347S0,35.689,1.432,41.074a8.715,8.715,0,0,0,6.13,6.13c5.5,1.489,27.211,1.489,27.211,1.489s21.769,0,27.211-1.433a8.713,8.713,0,0,0,6.13-6.129C69.546,35.689,69.546,24.4,69.546,24.4S69.6,13.061,68.113,7.619Zm0,0" transform="translate(0 0)" fill="red"/>
  <path id="Path_137916" data-name="Path 137916" d="M204.969,123.337l18.1-10.426-18.1-10.426Zm0,0" transform="translate(-177.128 -88.564)" fill="#fff"/>
</svg>
