 <svg xmlns="http://www.w3.org/2000/svg" id="Group_26365"
data-name="Group 26365" width="70.403" height="49.889"
viewBox="0 0 70.403 49.889">
<circle id="Ellipse_2076" data-name="Ellipse 2076" cx="21.679"
    cy="21.679" r="21.679" transform="translate(12.832 3.266)"
    fill="#ee4e5e"></circle>
<path id="Path_45927" data-name="Path 45927"
    d="M-513.233,659.863c-7.818,0-14.458-3.344-19.736-9.941-.033-.042-.462-.807-.464-.811-.255-.632-.727-.726-1.687-.866-.244-.035-.52-.075-.81-.133-2.218-.437-4.449-.99-6.607-1.523-.864-.214-1.729-.428-2.595-.635a1.054,1.054,0,0,1-.419-.174.879.879,0,0,1-.345-1,.925.925,0,0,1,.825-.6.672.672,0,0,1,.137.014c.737.156,1.468.373,2.175.582.514.152,1.046.309,1.571.441A86.95,86.95,0,0,0-527,647.47c2.282.185,4.61.305,6.861.421q1.323.069,2.646.141c.308.017,1.124.063,1.108.925-.006.32-.141.856-.977.856-.065,0-.131,0-.2-.008l-14.051-1.055.195.231c.41.487.8.947,1.158,1.428a7.266,7.266,0,0,0,4.836,2.8,71.15,71.15,0,0,0,12.626,1.157c1.617,0,3.252-.059,4.859-.176a53.5,53.5,0,0,0,9.551-1.489,1.729,1.729,0,0,0,.75-.4c.756-.738,1.508-1.509,2.234-2.255l.438-.449-.674.107c-.865.137-1.76.279-2.643.406-.919.132-1.855.25-2.76.365l-.821.1a2.24,2.24,0,0,1-.281.02.835.835,0,0,1-.933-.812c-.049-.561.283-.887.987-.969a88.717,88.717,0,0,0,13.789-2.544l.092-.022c.816-.151,1.2-.37,1.374-1.274a3.435,3.435,0,0,1,3.459-2.771,3.727,3.727,0,0,1,2.183.7.6.6,0,0,0,.307.143c.045,0,.125-.015.294-.146a3.325,3.325,0,0,0,1.595-2.43,3.276,3.276,0,0,0-1.6-2.378,23.041,23.041,0,0,0-7.413-3.3,26.207,26.207,0,0,1-1.244,7.911,3.844,3.844,0,0,0,2.339-2.267,1.535,1.535,0,0,1,.488-.8.621.621,0,0,1,.373-.1.883.883,0,0,1,.582.195,1.131,1.131,0,0,1,.3.887,4.165,4.165,0,0,1-1.83,2.848,12.813,12.813,0,0,1-4.494,1.955,73.144,73.144,0,0,1-18.59,2.174q-.486,0-.973,0a105.26,105.26,0,0,1-22.3-2.183A48.956,48.956,0,0,1-543.1,642.5a12.1,12.1,0,0,1-2.759-1.725,4.079,4.079,0,0,1-1.644-3.312,4.209,4.209,0,0,1,2.08-3.193,16.762,16.762,0,0,1,5.516-2.137l.117-.028c.569-.135,1.158-.274,1.75-.367.27-.042.325-.1.37-.367a24.621,24.621,0,0,1,13.187-18.562,23.8,23.8,0,0,1,11.35-2.836,27.642,27.642,0,0,1,4.2.33c.694.108,1.013.448.95,1.012a.8.8,0,0,1-.878.768,1.9,1.9,0,0,1-.3-.025,25.2,25.2,0,0,0-3.852-.31,21.2,21.2,0,0,0-2.653.164,23.036,23.036,0,0,0-14.5,7.487l-.038.043a85.332,85.332,0,0,0,17.124,1.764,86.346,86.346,0,0,0,17.343-1.8l-.322-.307c-.657-.628-1.277-1.222-1.9-1.785a.447.447,0,0,0-.189-.029.915.915,0,0,0-.142.011q-2.354.373-4.707.755-1.942.313-3.885.624l-.058.009a2.184,2.184,0,0,1-.363.039.645.645,0,0,1-.7-.63.687.687,0,0,1,.125-.526.941.941,0,0,1,.684-.276c.045,0,.089-.01.131-.016q2.21-.343,4.422-.676l2.972-.453c.1-.015.2-.038.286-.058,0-.013,0-.026,0-.039a.972.972,0,0,1,.514-1.023,1.064,1.064,0,0,1,.439-.1,1.207,1.207,0,0,1,.775.349l.062.05a24.635,24.635,0,0,1,9.489,17.459q.864.339,1.719.666c1.551.6,3.016,1.161,4.486,1.8a13.178,13.178,0,0,1,2.34,1.442l.292.209c.92.655,2.656,2.154,2.026,4.417a6.125,6.125,0,0,1-2.61,3.232c.361,2.507-.307,4.017-2.1,4.744a3.658,3.658,0,0,1-1.376.285,4.139,4.139,0,0,1-3.246-1.932q-.593.156-1.186.317c-1.056.283-2.149.576-3.234.83-.15.035-.3.065-.453.095a2.085,2.085,0,0,0-1.713,1.179l-.015.056-.036.045a24.338,24.338,0,0,1-16.026,9.414A30.222,30.222,0,0,1-513.233,659.863Zm-11.84-5.187a22.727,22.727,0,0,0,12.129,3.425,22.006,22.006,0,0,0,11.963-3.371,69.211,69.211,0,0,1-11.929,1.054A68.118,68.118,0,0,1-525.073,654.676Zm41.745-10.7a1.936,1.936,0,0,0-.613.1,1.915,1.915,0,0,0-1.236,1.31,1.882,1.882,0,0,0,.323,1.643,1.946,1.946,0,0,0,1.532.756h.034a1.879,1.879,0,0,0,1.859-1.922A1.933,1.933,0,0,0-483.328,643.973Zm-54.607-10.444a20.487,20.487,0,0,0-6.049,1.92,5.665,5.665,0,0,0-.756.5,2.259,2.259,0,0,0-.985,1.6,2.209,2.209,0,0,0,.779,1.665,7.261,7.261,0,0,0,1.57,1.167,15.594,15.594,0,0,0,2.431,1.1,64.8,64.8,0,0,0,14.021,3.256c4.619.5,9.107.849,13.341,1.025,1.289.053,2.574.08,3.82.08a72.195,72.195,0,0,0,17.449-2c1.187-.292,1.3-.623,1.307-.659l.008-.028a20.039,20.039,0,0,0,1.009-4.81,2.668,2.668,0,0,0-.266.024q-2.686.423-5.371.856l-.066.011a2.39,2.39,0,0,1-.392.044.645.645,0,0,1-.693-.566.693.693,0,0,1,.1-.553,1.007,1.007,0,0,1,.741-.312l.123-.016c.341-.052.683-.1,1.025-.141.393-.051.8-.1,1.2-.168.914-.148,1.827-.307,2.777-.473l1.029-.178v-.447c0-.588,0-1.147,0-1.706a2.582,2.582,0,0,0-.019-.268,150.244,150.244,0,0,1-23,1.79,150.5,150.5,0,0,1-23.407-1.852c.017.293.031.582.046.868.045.891.087,1.732.2,2.571.081.622.217,1.253.349,1.863.112.521.229,1.059.312,1.6a1.217,1.217,0,0,1-.5,1.084.809.809,0,0,1-.384.1.889.889,0,0,1-.805-.74c-.013-.045-.026-.089-.04-.133-.02-.066-.04-.131-.058-.2a25.657,25.657,0,0,1-.836-7.489C-537.934,633.785-537.935,633.663-537.936,633.529Zm1.864-.628c4.412,1.146,13.609,1.855,24.125,1.855,10.344,0,18.743-.69,22.048-1.807a1.563,1.563,0,0,0,0-.175,23.84,23.84,0,0,0-2.411-8.349c-.171-.343-.293-.4-.485-.4a1.321,1.321,0,0,0-.258.031,94.006,94.006,0,0,1-16.536,1.749c-1.254.031-2.5.047-3.69.047a101.242,101.242,0,0,1-19.872-1.785.835.835,0,0,0-.157-.018c-.078,0-.152,0-.234.2-.173.42-.355.836-.537,1.251-.3.691-.614,1.4-.877,2.12-.218.593-.377,1.205-.545,1.853-.053.205-.107.412-.163.62.271.062.536.126.8.189.735.177,1.428.344,2.128.443,2.456.347,4.958.666,7.378.975l2.129.271a1,1,0,0,1,.741.306.649.649,0,0,1,.091.525c-.049.251-.241.55-.88.55-.043,0-.089,0-.138,0-2.469-.142-4.955-.5-7.359-.849-1.269-.183-2.522-.444-3.733-.7-.463-.1-.927-.193-1.394-.286l-.008.044c-.041.244-.082.488-.113.734-.022.173-.03.354-.04.546C-536.069,632.857-536.07,632.879-536.072,632.9Zm3.345-10.134a116.405,116.405,0,0,0,19.63,1.7h0a115.116,115.116,0,0,0,19.815-1.741l-.243-.349c-.345-.5-.67-.963-.97-1.441-.151-.24-.279-.288-.437-.288a1.286,1.286,0,0,0-.294.042,69.738,69.738,0,0,1-13.86,1.83c-1.409.054-2.8.081-4.141.081a77.006,77.006,0,0,1-17.707-1.9.226.226,0,0,0-.049,0,.571.571,0,0,0-.352.124c-.388.494-.742,1-1.151,1.6Z"
    transform="translate(547.513 -609.974)"></path>
<path id="Path_45928" data-name="Path 45928"
    d="M-526.686,652.12a2.316,2.316,0,0,1-2.281,2.3,2.324,2.324,0,0,1-2.341-2.314,2.294,2.294,0,0,1,2.353-2.288A2.286,2.286,0,0,1-526.686,652.12Zm-2.333-1.517a1.526,1.526,0,0,0-1.513,1.559,1.549,1.549,0,0,0,1.516,1.467,1.537,1.537,0,0,0,1.558-1.519A1.516,1.516,0,0,0-529.019,650.6Z"
    transform="translate(535.687 -639.053)"></path>
<path id="Path_45929" data-name="Path 45929"
    d="M-503.951,773.7a2.324,2.324,0,0,1-2.269,2.317,2.356,2.356,0,0,1-2.349-2.32,2.321,2.321,0,0,1,2.353-2.3A2.278,2.278,0,0,1-503.951,773.7Zm-.892-.008a1.4,1.4,0,0,0-1.433-1.4,1.432,1.432,0,0,0-1.394,1.365,1.466,1.466,0,0,0,1.4,1.462A1.432,1.432,0,0,0-504.843,773.7Z"
    transform="translate(519.091 -727.784)"></path>
<path id="Path_45930" data-name="Path 45930"
    d="M-430.794,639.525a.616.616,0,0,1-.353-.124.688.688,0,0,1-.292-.61.655.655,0,0,1,.355-.547.641.641,0,0,1,.273-.076c.481-.021,1.183-.035,1.8-.048.327-.007.661-.014.872-.02l.237-.014c.25-.015.5-.031.75-.048.667-.044,1.357-.09,2.041-.092a.677.677,0,0,1,.2.032.7.7,0,0,1,.485.679.635.635,0,0,1-.461.618.61.61,0,0,1-.134.024c-1.969.11-3.91.187-5.769.226Z"
    transform="translate(462.804 -630.388)"></path>
<path id="Path_45931" data-name="Path 45931"
    d="M-427.155,639.085c.925-.053,1.851-.137,2.776-.139a.412.412,0,0,1,.122.02.412.412,0,0,1,.029.78.334.334,0,0,1-.073.013q-2.878.162-5.76.226a.359.359,0,0,1-.2-.077.409.409,0,0,1,.033-.693.4.4,0,0,1,.161-.047C-429.1,639.127-427.155,639.107-427.155,639.085Z"
    transform="translate(462.074 -631.118)"></path>
<path id="Path_45932" data-name="Path 45932"
    d="M-495.263,711.779l-.044,0c-1.834-.263-3.729-.568-5.634-.907a.752.752,0,0,1-.431-.3.63.63,0,0,1-.145-.472.627.627,0,0,1,.235-.431.637.637,0,0,1,.395-.137.625.625,0,0,1,.1.007l1.21.183c1.556.234,3.025.457,4.484.7a.689.689,0,0,1,.39.25.627.627,0,0,1,.152.475.639.639,0,0,1-.248.444.744.744,0,0,1-.44.187Z"
    transform="translate(513.948 -682.631)"></path>
<path id="Path_45933" data-name="Path 45933"
    d="M-500.384,710.611a.366.366,0,0,1,.281-.074c2.032.308,3.864.577,5.69.883a.435.435,0,0,1,.232.163.363.363,0,0,1-.057.526.451.451,0,0,1-.3.129q-2.819-.4-5.625-.905a.515.515,0,0,1-.271-.2.364.364,0,0,1,.051-.518Z"
    transform="translate(513.218 -683.361)"></path>
<path id="Path_45934" data-name="Path 45934"
    d="M-361.074,669.411a2.291,2.291,0,0,1,2.272,2.367,2.3,2.3,0,0,1-2.339,2.234,2.31,2.31,0,0,1-2.282-2.3A2.309,2.309,0,0,1-361.074,669.411Zm1.041,2.269a1.061,1.061,0,0,0-1.121-1.027,1.074,1.074,0,0,0-1.034,1.054,1.075,1.075,0,0,0,1.1,1.062A1.059,1.059,0,0,0-360.033,671.68Z"
    transform="translate(413.165 -653.35)"></path>
</svg>
