<svg xmlns="http://www.w3.org/2000/svg" width="61.167" height="54.713" viewBox="0 0 61.167 54.713">
  <g id="Group_11419" data-name="Group 11419" transform="translate(-165.832 -171.87)">
    <path id="Path_8347" data-name="Path 8347" d="M165.832,277.049a1.066,1.066,0,0,1,1.126-.6c.355.029.714.006,1.149.006v-.707q0-14.667,0-29.333a5.552,5.552,0,0,1,4.816-5.662,8.439,8.439,0,0,1,1.306-.055q2.364-.009,4.727,0c.706,0,1.112.322,1.1.861s-.413.845-1.126.846c-1.69,0-3.379,0-5.069,0a3.863,3.863,0,0,0-4.048,4.045q-.007,14.724,0,29.447c0,.166.018.332.031.556h.7c5.962,0,11.923.011,17.885-.011a2.112,2.112,0,0,1,2.05,1.048,1.341,1.341,0,0,0,1.24.671q3.218,0,6.436,0a1.343,1.343,0,0,0,1.243-.668,2.11,2.11,0,0,1,2.048-1.051c6,.022,12,.011,18,.011h.734v-.665q0-14.581,0-29.162a3.894,3.894,0,0,0-4.217-4.221q-2.933,0-5.867,0c-.513,0-.9-.184-.989-.733a.786.786,0,0,1,.734-.96c2.392-.011,4.8-.153,7.171.065a5.409,5.409,0,0,1,4.875,5.638q.012,13.1,0,26.2v3.762c.764.279,1.762-.328,2.275.668V279.9c-.024.028-.062.053-.07.085-.842,3.356-2.864,4.937-6.32,4.937h-29.38c-5.542,0-11.084.015-16.626-.007a5.659,5.659,0,0,1-5.4-3.418,12.8,12.8,0,0,1-.541-1.6Zm56.576,1.142c-.124-.009-.217-.022-.31-.022q-10.337,0-20.674.013a.91.91,0,0,0-.629.341,3.151,3.151,0,0,1-2.684,1.352c-2.126,0-4.252.007-6.379,0a2.918,2.918,0,0,1-2.576-1.307.872.872,0,0,0-.851-.4q-10.081.012-20.161.007c-.184,0-.368.017-.544.026a4.178,4.178,0,0,0,4.3,5.014q23.066.006,46.132,0C220.933,283.209,222.733,281.166,222.408,278.192Z" transform="translate(0 -58.341)"/>
    <rect id="Rectangle_1039" data-name="Rectangle 1039" width="25" height="18" rx="3" transform="translate(181.999 173.052)" fill="#ee4e5e"/>
    <path id="Path_8348" data-name="Path 8348" d="M237.182,293.332H249.6v-.639q0-12.675.012-25.35c0-.567-.133-.752-.724-.74-1.879.038-3.759.016-5.639.013-.711,0-1.1-.317-1.086-.873.009-.536.38-.836,1.061-.838,2.013,0,4.026-.008,6.038,0a1.923,1.923,0,0,1,2.044,2.031q.007,13.53,0,27.059c0,.8-.309,1.074-1.186,1.074q-8.887,0-17.773,0H206.2c-1.18,0-1.376-.2-1.376-1.4,0-1.082,0-2.165,0-3.247,0-.674.312-1.046.852-1.047s.851.372.855,1.044c.005.949,0,1.9,0,2.892H218.95c0-.856.044-1.706-.008-2.551a7.492,7.492,0,0,1,2.7-6.466c.4-.344.382-.6.149-1.044A7.084,7.084,0,1,1,234.63,277.3a2.167,2.167,0,0,1,.157.485.842.842,0,0,1-1.563.565,3.824,3.824,0,0,1-.23-.519,5.386,5.386,0,1,0,.126,3.994c.058-.16.105-.325.17-.483a.851.851,0,0,1,1.032-.58.824.824,0,0,1,.575,1.076,8.357,8.357,0,0,1-.638,1.574.531.531,0,0,0,.119.769,7.206,7.206,0,0,1,2.112,2.718,12.656,12.656,0,0,1,.665,2.909C237.268,290.953,237.182,292.119,237.182,293.332Zm-1.709,0c0-1.011-.042-1.979.009-2.942a5.952,5.952,0,0,0-2.543-5.18q-4.883,3.784-9.756-.014c-1.1.98-2.181,2.01-2.369,3.522s-.147,3.051-.208,4.613Z" transform="translate(-33.068 -78.898)"/>
    <path id="Path_8349" data-name="Path 8349" d="M283.55,192.171q-4.443,0-8.886,0a3.694,3.694,0,0,1-3.874-3.859q-.011-3.56,0-7.12c0-.673.38-1.059.949-1,.487.051.756.4.757,1.026,0,2.316,0,4.633,0,6.949a2.036,2.036,0,0,0,2.319,2.3q8.771,0,17.543,0a2.04,2.04,0,0,0,2.3-2.315q.007-6.123,0-12.246a2.04,2.04,0,0,0-2.3-2.317q-8.771,0-17.543,0a2.037,2.037,0,0,0-2.32,2.295c0,.475.011.95,0,1.424a.875.875,0,0,1-.867.934.858.858,0,0,1-.833-.957,14.954,14.954,0,0,1,.132-2.605,3.55,3.55,0,0,1,3.447-2.789q9.2-.024,18.4,0a3.642,3.642,0,0,1,3.566,3.275,6.345,6.345,0,0,1,.041.681c0,4.12.01,8.24,0,12.36a3.717,3.717,0,0,1-4,3.971Q287.964,192.173,283.55,192.171Z" transform="translate(-89.011)"/>
    <path id="Path_8350" data-name="Path 8350" d="M204.82,276.635q0-4.752,0-9.5a1.966,1.966,0,0,1,2.2-2.216q2.447-.006,4.895,0c.8,0,1.223.306,1.211.871s-.424.841-1.242.842c-1.575,0-3.15.019-4.724-.011-.506-.01-.642.148-.641.646q.023,9.391.01,18.781c0,.171.008.342,0,.512a.864.864,0,0,1-.86.877.849.849,0,0,1-.84-.893c-.014-1.518-.006-3.035-.006-4.553Q204.82,279.31,204.82,276.635Z" transform="translate(-33.064 -78.908)"/>
    <g id="Group_11421" data-name="Group 11421" transform="translate(0.327 0.38)">
      <g id="Group_11420" data-name="Group 11420" transform="translate(188.774 176.143)">
        <path id="Path_8323" data-name="Path 8323" d="M462.873,375.369a2.73,2.73,0,0,1-.209.491,1,1,0,0,1-.884.427c-.322,0-.644,0-.981,0v.13c0,.522,0,1.044,0,1.566a.343.343,0,0,1-.468.352.607.607,0,0,1-.182-.136q-.917-.915-1.83-1.835a.243.243,0,0,0-.191-.079q-1.33,0-2.66,0h-.147c.036-.04.056-.065.079-.086.188-.176.379-.348.564-.527a.252.252,0,0,1,.192-.076q1.791,0,3.582,0a1.722,1.722,0,0,0,1.714-1.36,2.033,2.033,0,0,0,.041-.445q0-2.476,0-4.952v-.135a1.092,1.092,0,0,1,1.363.861.229.229,0,0,0,.016.043Z" transform="translate(-451.077 -367.305)" fill="#fff5f6"/>
        <path id="Path_8324" data-name="Path 8324" d="M310.042,328.381c-.341,0-.667,0-.992,0a1.044,1.044,0,0,1-.876-.425,1.029,1.029,0,0,1-.2-.635q0-2.741,0-5.482a1.036,1.036,0,0,1,1.1-1.06h6.922c.207,0,.415,0,.622,0a1.041,1.041,0,0,1,1.073,1.078c0,.5,0,1.006,0,1.509q0,1.958,0,3.916a1,1,0,0,1-.59.985,1.3,1.3,0,0,1-.522.109c-1.248.009-2.5.007-3.743,0a.519.519,0,0,0-.4.165q-.871.88-1.752,1.75a.561.561,0,0,1-.261.151.337.337,0,0,1-.382-.369c0-.518,0-1.037,0-1.555Zm2.8-4.147h-3.05c-.042,0-.085,0-.126,0a.343.343,0,0,0-.283.483.369.369,0,0,0,.378.207q3.067,0,6.135,0a.72.72,0,0,0,.1,0,.336.336,0,0,0,.285-.221.345.345,0,0,0-.356-.467Zm-.706-1.382h-2.348a1.247,1.247,0,0,0-.126,0,.347.347,0,0,0-.309.307.338.338,0,0,0,.241.361.613.613,0,0,0,.17.019h4.753a.756.756,0,0,0,.092,0,.335.335,0,0,0,.293-.225.344.344,0,0,0-.349-.463Q313.344,322.85,312.136,322.852Zm-.677,2.765c-.583,0-1.166,0-1.749,0a.345.345,0,1,0-.007.69c.034,0,.069,0,.1,0h3.049c.115,0,.23,0,.345,0a.331.331,0,0,0,.318-.223.343.343,0,0,0-.346-.466C312.6,325.615,312.03,325.616,311.459,325.616Z" transform="translate(-307.967 -320.778)" fill="#fff5f6"/>
      </g>
    </g>
    <g id="Ellipse_1618" data-name="Ellipse 1618" transform="translate(208.999 192.052)" fill="#ee4e5e" stroke="#1c1c1c" stroke-width="2">
      <circle cx="9" cy="9" r="9" stroke="none"/>
      <circle cx="9" cy="9" r="8" fill="none"/>
    </g>
    <g id="Group_11422" data-name="Group 11422" transform="translate(158.402 87.599)">
      <path id="Path_8327" data-name="Path 8327" d="M249.372,108.653c.217.05.435.093.649.151a5.4,5.4,0,0,1,2.551,1.538,5.5,5.5,0,0,1,1.33,2.4c.038.143.064.288.1.449l-.726.126a4.853,4.853,0,0,0-4.057-3.934l.1-.73Z" transform="translate(-189.567 0)" fill="#fff5f6"/>
      <path id="Path_8328" data-name="Path 8328" d="M61.592,154.325a3.957,3.957,0,0,1-1.474-.348,9.684,9.684,0,0,1-4.418-3.855,6.653,6.653,0,0,1-.87-2.027,2.251,2.251,0,0,1-.028-.992,1.056,1.056,0,0,1,.291-.531c.249-.25.5-.5.75-.746a.66.66,0,0,1,.762-.19.983.983,0,0,1,.292.2c.372.363.737.732,1.1,1.1a.727.727,0,0,1,.256.63.822.822,0,0,1-.266.466c-.211.212-.424.422-.635.633-.116.116-.118.142-.052.289a5.377,5.377,0,0,0,1.017,1.433,6.564,6.564,0,0,0,1.329,1.126c.173.108.358.2.538.293.083.045.143.007.2-.051q.336-.338.674-.675a.793.793,0,0,1,.461-.255.629.629,0,0,1,.5.149c.12.1.231.214.342.325q.439.436.876.874a.832.832,0,0,1,.249.414.6.6,0,0,1-.146.554c-.282.3-.572.6-.874.888A1.219,1.219,0,0,1,61.592,154.325Z" transform="translate(0 -35.999)" fill="#fff5f6"/>
      <path id="Path_8329" data-name="Path 8329" d="M245.164,186.523l.1-.729a3.317,3.317,0,0,1,2.816,2.727l-.729.125A2.62,2.62,0,0,0,245.164,186.523Z" transform="translate(-185.614 -75.2)" fill="#fff5f6"/>
    </g>
  </g>
</svg>
