<svg xmlns="http://www.w3.org/2000/svg" width="46.668" height="54.5" viewBox="0 0 46.668 54.5">
  <g id="Group_11425" data-name="Group 11425" transform="translate(-589.17 -130.99)">
    <circle id="Ellipse_1617" data-name="Ellipse 1617" cx="9.47" cy="9.47" r="9.47" transform="translate(616.224 162.032)" fill="#ee4e5e"/>
    <g id="Group_11417" data-name="Group 11417" transform="translate(589.17 130.99)">
      <path id="Path_8337" data-name="Path 8337" d="M635.838,170.447V172.5a1.937,1.937,0,0,0-.094.3,9.768,9.768,0,0,1-4.679,7.283,2,2,0,0,0-1.087,2.075,2.977,2.977,0,0,1-3.284,3.327c-14.3,0-19.949,0-34.245,0a3,3,0,0,1-3.278-3.294q0-23.955,0-47.91a3,3,0,0,1,3.279-3.292c14.3,0,19.949,0,34.245,0a4.325,4.325,0,0,1,1.017.089,3,3,0,0,1,2.284,3.131q0,13.692-.01,27.385a.852.852,0,0,0,.519.861,10.1,10.1,0,0,1,5.035,6.57C635.657,169.5,635.739,169.975,635.838,170.447Zm-7.57-8.974V160.9q0-13.259,0-26.518c0-1.259-.412-1.665-1.694-1.665H592.6c-1.314,0-1.7.391-1.7,1.7q0,23.818,0,47.635a1.3,1.3,0,0,0,.018.534,2.676,2.676,0,0,0,.651.983,1.876,1.876,0,0,0,1.034.181c14.2.008,19.766.007,33.97.006.162,0,.324,0,.486-.011a1.2,1.2,0,0,0,1.182-1.058,10.307,10.307,0,0,0,.01-1.263c-4.659.908-8.522-.329-11.2-4.268a9.562,9.562,0,0,1-.339-10.857C619.3,161.966,623.3,160.558,628.267,161.473ZM625.556,180a8.547,8.547,0,1,0-8.533-8.547A8.552,8.552,0,0,0,625.556,180Z" transform="translate(-589.17 -130.99)"/>
      <path id="Path_8338" data-name="Path 8338" d="M635.439,181.4a27.925,27.925,0,0,1,2.533,2.052,7.4,7.4,0,0,1,2.081,5.016c.033.678-.264,1.094-.8,1.131s-.867-.316-.921-1.013a6.139,6.139,0,0,0-12.265-.173c-.006.126,0,.253-.016.377a.855.855,0,0,1-.851.81.793.793,0,0,1-.85-.847,13.74,13.74,0,0,1,.593-2.989,7.61,7.61,0,0,1,4.143-4.258,4.893,4.893,0,0,1-1.718-4.392,4.678,4.678,0,0,1,1.65-3.063,4.86,4.86,0,0,1,6.574.2C637.622,176.229,637.537,178.84,635.439,181.4Zm-6.378-3.7a3.138,3.138,0,1,0,3.14-3.1A3.109,3.109,0,0,0,629.061,177.7Z" transform="translate(-619.276 -166.835)"/>
      <path id="Path_8339" data-name="Path 8339" d="M752.927,226.651c-2.591,0,.578,0-2.013,0a.916.916,0,0,1-.986-.588.851.851,0,0,1,.69-1.127,2.954,2.954,0,0,1,.485-.017h9.41c.108,0,.216,0,.324,0a.882.882,0,0,1,.878.849.863.863,0,0,1-.9.87c-.918.015-1.836,0-2.753.005Z" transform="translate(-726.729 -211.392)"/>
      <path id="Path_8340" data-name="Path 8340" d="M752.939,180.58c-2.5,0,.76,0-1.741,0a2.54,2.54,0,0,1-.589-.042.843.843,0,0,1,.033-1.649,3.233,3.233,0,0,1,.591-.035c5,0,4.242,0,9.243,0,.88,0,1.3.277,1.309.854s-.425.874-1.29.874Z" transform="translate(-726.797 -171.958)"/>
      <path id="Path_8341" data-name="Path 8341" d="M752.938,272.829c-2.483,0,.8,0-1.687,0a2.826,2.826,0,0,1-.643-.046.843.843,0,0,1,.034-1.649,2.9,2.9,0,0,1,.537-.031h9.513c.689.014,1.086.323,1.092.851s-.4.87-1.074.874c-1.241.009-2.483,0-3.724,0Z" transform="translate(-726.797 -250.92)"/>
      <path id="Path_8342" data-name="Path 8342" d="M810.065,391.226c.357-.4.667-.771,1.007-1.115q2.033-2.051,4.084-4.086c.464-.46.952-.489,1.329-.109a.866.866,0,0,1-.109,1.329q-2.8,2.812-5.613,5.611a.915.915,0,0,1-1.493-.017q-1.152-1.138-2.291-2.29c-.457-.462-.505-.951-.146-1.328s.9-.356,1.369.113C808.8,389.931,809.388,390.538,810.065,391.226Z" transform="translate(-775.279 -348.973)" fill="#fff5f6"/>
    </g>
    <path id="Path_8343" data-name="Path 8343" d="M636.052,321.162H653.6a4.918,4.918,0,0,1,.539.009.852.852,0,0,1,.793.867.843.843,0,0,1-.766.84,2.923,2.923,0,0,1-.485.012H625.573a3.676,3.676,0,0,1-.432-.008.858.858,0,0,1,.026-1.713c.178-.017.36-.007.54-.007Z" transform="translate(-30.111 -162.778)"/>
    <path id="Path_8344" data-name="Path 8344" d="M631.609,459.5h12.8c.162,0,.324,0,.486,0,.791.006,1.181.292,1.182.865s-.387.862-1.18.862c-8.836,0-10.471,0-19.308,0a2.942,2.942,0,0,1-.431-.02.847.847,0,0,1,0-1.682,4.014,4.014,0,0,1,.592-.025Z" transform="translate(-30.159 -281.195)"/>
    <path id="Path_8345" data-name="Path 8345" d="M631.073,367.351q6.318,0,12.636,0a3.315,3.315,0,0,1,.645.033.842.842,0,0,1,.049,1.635,2.489,2.489,0,0,1-.642.057c-8.442,0-9.682,0-18.124,0h-.108c-.769-.01-1.188-.317-1.188-.872s.413-.855,1.19-.856Z" transform="translate(-30.105 -202.316)"/>
    <path id="Path_8346" data-name="Path 8346" d="M630.182,415.122h-4.573a2.192,2.192,0,0,1-.537-.025.857.857,0,0,1,.028-1.684,1.724,1.724,0,0,1,.377-.018H642.04a1.979,1.979,0,0,1,.377.014.83.83,0,0,1,.734.81.842.842,0,0,1-.71.885,3.164,3.164,0,0,1-.539.018Z" transform="translate(-30.147 -241.726)"/>
  </g>
</svg>
