<svg xmlns="http://www.w3.org/2000/svg" width="54.72" height="54.713" viewBox="0 0 54.72 54.713">
  <g id="Group_11424" data-name="Group 11424" transform="translate(-303.64 -2064.819)">
    <path id="Path_8358" data-name="Path 8358" d="M321.563,2087.25l18.563-.5,2.063,1.938v9.813l-.5,6.25-1.937,1.438H321.563l-1.75-2.75.25-15.187Z" fill="#ee4e5e"/>
    <path id="Path_8357" data-name="Path 8357" d="M322.063,2085.5s.25-11.687,9.813-10.562c5.25,1.313,8.313,3.625,7.688,10.563a5.625,5.625,0,0,1-4.125,0s-.437-6.125-3.562-6.125-5.437,1.938-5.312,6.375A12.372,12.372,0,0,1,322.063,2085.5Z" fill="#ee4e5e"/>
    <g id="Group_11423" data-name="Group 11423" transform="translate(-641.248 1891.319)">
      <path id="Path_8351" data-name="Path 8351" d="M1252.983,272.456c-.137,1.036-.246,2.077-.417,3.108a26.361,26.361,0,0,1-4.524,10.949.707.707,0,0,0-.066.885,3.992,3.992,0,0,1-.664,4.733,4.059,4.059,0,0,1-6.927-3.366,3.963,3.963,0,0,1,3.266-3.43,14.268,14.268,0,0,1,2.554.087,21.959,21.959,0,0,0,2.815-5.14,25.06,25.06,0,0,0-2.252-23.2,2.172,2.172,0,0,1-.348-1.074.9.9,0,0,1,.771-.846,1.061,1.061,0,0,1,1.193.5,27.191,27.191,0,0,1,2.772,5.34,26.815,26.815,0,0,1,1.739,7.727,5.067,5.067,0,0,0,.089.516Zm-10.485,16.8a1.917,1.917,0,0,0,1.9,1.966,1.956,1.956,0,0,0,1.941-1.886,1.918,1.918,0,0,0-1.913-1.95A1.888,1.888,0,0,0,1242.5,289.259Z" transform="translate(-253.375 -70.001)"/>
      <path id="Path_8352" data-name="Path 8352" d="M1072.9,173.5c1,.136,2.005.246,3,.414a26.885,26.885,0,0,1,10.818,4.417,1.13,1.13,0,0,1,.452,1.635,1.113,1.113,0,0,1-1.649.138,25.267,25.267,0,0,0-23.3-2.819c-.15.056-.3.118-.449.168a1.078,1.078,0,0,1-1.446-.61,1.055,1.055,0,0,1,.728-1.393c1.416-.463,2.83-.955,4.278-1.294,1.24-.29,2.526-.383,3.791-.565.157-.023.311-.06.467-.091Z" transform="translate(-98.933)"/>
      <path id="Path_8353" data-name="Path 8353" d="M1063.634,269.312q-3.979,0-7.958,0a3.9,3.9,0,0,1-4.194-4.2c0-4.5.005-9.008,0-13.512a3.939,3.939,0,0,1,2.07-3.657.726.726,0,0,0,.274-.538,16.462,16.462,0,0,1,.4-4.5,9.814,9.814,0,0,1,19.123,1.149,26.284,26.284,0,0,1,.137,3.355.573.573,0,0,0,.331.579,3.758,3.758,0,0,1,2.026,3.455q.013,6.943,0,13.886a3.862,3.862,0,0,1-3.981,3.982C1069.117,269.322,1066.375,269.312,1063.634,269.312Zm-.009-2.137q4.031,0,8.062,0a1.777,1.777,0,0,0,2.018-1.991q0-6.78,0-13.561a1.75,1.75,0,0,0-1.972-1.969q-8.062,0-16.124,0a1.753,1.753,0,0,0-1.99,2q0,6.727,0,13.454a1.8,1.8,0,0,0,2.051,2.064Q1059.648,267.177,1063.625,267.175Zm7.663-19.687c.36-3.346-.431-6.4-3.623-8.412a7.562,7.562,0,0,0-8.656.441c-2.762,2.143-3.325,5.088-2.947,7.963h2.16c0-.726-.022-1.417,0-2.107a5.444,5.444,0,0,1,10.881.2c.012.633,0,1.266,0,1.915Zm-4.319.013c0-.7.019-1.354,0-2.007a3.306,3.306,0,0,0-6.31-1.237,7.691,7.691,0,0,0-.285,3.244Z" transform="translate(-91.406 -53.415)"/>
      <path id="Path_8354" data-name="Path 8354" d="M951.8,215.316A25.213,25.213,0,0,0,981.514,253.5a1.105,1.105,0,0,1,1.651,1.088,1.135,1.135,0,0,1-.814.9,26.713,26.713,0,0,1-6.435,1.68A26.347,26.347,0,0,1,960.2,254.6c-8.393-4.308-13.505-11.138-14.965-20.5a26.445,26.445,0,0,1,4.676-19.8.557.557,0,0,0,.047-.7,3.993,3.993,0,0,1,.549-4.748,4.054,4.054,0,1,1,3.834,6.716A4.157,4.157,0,0,1,951.8,215.316Zm1.654-1.8a1.892,1.892,0,0,0,1.933-1.863,1.917,1.917,0,0,0-1.89-1.973,1.953,1.953,0,0,0-1.949,1.931A1.921,1.921,0,0,0,953.455,213.519Z" transform="translate(0 -29.204)"/>
      <path id="Path_8355" data-name="Path 8355" d="M1261.423,230.033a1.042,1.042,0,0,1,1.047-1.052,1.078,1.078,0,0,1,1.076,1.039,1.1,1.1,0,0,1-1.09,1.089A1.062,1.062,0,0,1,1261.423,230.033Z" transform="translate(-271.442 -47.577)"/>
      <path id="Path_8356" data-name="Path 8356" d="M1109.09,357.327c0-.2-.01-.392,0-.587a3.606,3.606,0,0,0-.447-2.021,3.982,3.982,0,0,1,1.211-5.054,4.081,4.081,0,0,1,5.167.235,4.134,4.134,0,0,1,.782,5.166,2.338,2.338,0,0,0-.291,1.032c-.041.853,0,1.709-.016,2.563a3.2,3.2,0,1,1-6.406,0C1109.084,358.218,1109.09,357.772,1109.09,357.327Zm2.137-.467c0,.569-.007,1.139,0,1.708a1.072,1.072,0,1,0,2.132-.02c.009-.889.023-1.78,0-2.668A2.607,2.607,0,0,1,1113.9,354a1.86,1.86,0,0,0-.344-2.545,1.946,1.946,0,0,0-2.543.014,1.863,1.863,0,0,0-.32,2.549,2.364,2.364,0,0,1,.535,1.771C1111.206,356.147,1111.226,356.5,1111.226,356.86Z" transform="translate(-140.039 -150.374)"/>
    </g>
    <path id="Path_8359" data-name="Path 8359" d="M1111.226,356.86c0,.569-.007,1.139,0,1.708a1.072,1.072,0,1,0,2.132-.02c.009-.889.023-1.78,0-2.668A2.607,2.607,0,0,1,1113.9,354a1.86,1.86,0,0,0-.344-2.545,1.946,1.946,0,0,0-2.543.014,1.863,1.863,0,0,0-.32,2.549,2.364,2.364,0,0,1,.535,1.771C1111.206,356.147,1111.226,356.5,1111.226,356.86Z" transform="translate(-781.287 1740.944)" fill="#fff5f6"/>
  </g>
</svg>
