<svg id="Group_11390" data-name="Group 11390" xmlns="http://www.w3.org/2000/svg" width="80.989" height="83.348" viewBox="0 0 80.989 83.348">
  <path id="Path_8327" data-name="Path 8327" d="M250.5,108.653c1.813.43,3.641.8,5.435,1.3A44.978,44.978,0,0,1,277.29,123.2a47.761,47.761,0,0,1,11.132,20.674c.318,1.228.535,2.484.83,3.871l-6.076,1.086c-4.267-18.76-15.522-30.025-33.957-33.893l.807-6.289Z" transform="translate(-208.263 -108.653)" fill="#130708"/>
  <path id="Path_8328" data-name="Path 8328" d="M111.952,220.923a32.346,32.346,0,0,1-12.337-3c-15.733-7.047-27.921-18.307-36.979-33.214a58.223,58.223,0,0,1-7.283-17.468,19.947,19.947,0,0,1-.235-8.546,9.182,9.182,0,0,1,2.432-4.576c2.085-2.151,4.164-4.307,6.275-6.43,1.806-1.817,3.9-2.724,6.382-1.641a8.219,8.219,0,0,1,2.448,1.731c3.112,3.125,6.169,6.308,9.232,9.485a6.359,6.359,0,0,1,2.144,5.429,7.137,7.137,0,0,1-2.225,4.018c-1.766,1.826-3.547,3.637-5.319,5.457-.97,1-.986,1.227-.439,2.492,2.038,4.7,5.164,8.608,8.514,12.343a55.386,55.386,0,0,0,11.123,9.7c1.445.933,3,1.686,4.5,2.522.691.384,1.2.058,1.679-.439q2.813-2.916,5.639-5.819a6.586,6.586,0,0,1,3.862-2.193,5.167,5.167,0,0,1,4.181,1.285c1.008.868,1.93,1.843,2.865,2.8q3.676,3.753,7.33,7.53a7.206,7.206,0,0,1,2.088,3.569,5.313,5.313,0,0,1-1.223,4.772c-2.364,2.623-4.788,5.2-7.314,7.651C117.328,220.292,114.812,220.913,111.952,220.923Z" transform="translate(-54.759 -137.575)" fill="#ee4e5e"/>
  <path id="Path_8329" data-name="Path 8329" d="M245.164,192.071l.862-6.277c11.227,1.364,21.518,10.786,23.571,23.494l-6.1,1.081C261.2,200.231,255.114,194.173,245.164,192.071Z" transform="translate(-205.062 -169.07)" fill="#130708"/>
</svg>
