<svg xmlns="http://www.w3.org/2000/svg" width="25.993" height="25.988" viewBox="0 0 25.993 25.988">
  <g id="Group_11415" data-name="Group 11415" transform="translate(0 0)">
    <path id="Path_8327" data-name="Path 8327" d="M249.63,108.653c.582.134,1.169.249,1.744.405a14.505,14.505,0,0,1,6.853,4.132,14.766,14.766,0,0,1,3.573,6.446c.1.383.172.775.266,1.207l-1.95.339c-1.37-5.849-4.982-9.362-10.9-10.568l.259-1.961Z" transform="translate(-236.074 -108.653)"/>
    <path id="Path_8328" data-name="Path 8328" d="M73.115,169.072a10.63,10.63,0,0,1-3.959-.936,26.018,26.018,0,0,1-11.868-10.356,17.875,17.875,0,0,1-2.337-5.447,6.047,6.047,0,0,1-.075-2.665,2.838,2.838,0,0,1,.781-1.427c.669-.671,1.336-1.343,2.014-2a1.773,1.773,0,0,1,2.048-.512,2.64,2.64,0,0,1,.786.54c1,.974,1.98,1.967,2.963,2.958a1.954,1.954,0,0,1,.688,1.693,2.209,2.209,0,0,1-.714,1.253c-.567.569-1.139,1.134-1.707,1.7-.311.311-.317.383-.141.777a14.447,14.447,0,0,0,2.732,3.849,17.636,17.636,0,0,0,3.57,3.025c.464.291.963.526,1.446.786.222.12.385.018.539-.137q.9-.909,1.81-1.814a2.13,2.13,0,0,1,1.239-.684,1.691,1.691,0,0,1,1.342.4c.323.271.619.575.919.872q1.18,1.17,2.352,2.348a2.234,2.234,0,0,1,.67,1.113,1.623,1.623,0,0,1-.393,1.488c-.759.818-1.537,1.62-2.348,2.385A3.274,3.274,0,0,1,73.115,169.072Z" transform="translate(-54.759 -143.085)"/>
    <path id="Path_8329" data-name="Path 8329" d="M245.164,187.751l.277-1.957a8.911,8.911,0,0,1,7.565,7.325l-1.959.337A7.039,7.039,0,0,0,245.164,187.751Z" transform="translate(-232.293 -180.58)"/>
  </g>
</svg>
