<svg xmlns="http://www.w3.org/2000/svg" xmlns:xlink="http://www.w3.org/1999/xlink" width="47.373" height="47.378" viewBox="0 0 47.373 47.378">
  <defs>
    <linearGradient id="linear-gradient" x1="0.5" y1="0.016" x2="0.5" y2="0.909" gradientUnits="objectBoundingBox">
      <stop offset="0" stop-color="#f1d2bd"/>
      <stop offset="1" stop-color="#feb592"/>
    </linearGradient>
    <linearGradient id="linear-gradient-2" x1="0.5" y1="0.048" x2="0.5" y2="1.005" gradientUnits="objectBoundingBox">
      <stop offset="0" stop-color="#34ca82"/>
      <stop offset="1" stop-color="#37a477"/>
    </linearGradient>
    <linearGradient id="linear-gradient-3" x1="0.5" y1="0.016" x2="0.5" y2="1.056" gradientUnits="objectBoundingBox">
      <stop offset="0" stop-color="#edf1f2"/>
      <stop offset="1" stop-color="#c6cbcc"/>
    </linearGradient>
    <linearGradient id="linear-gradient-4" x1="0.5" y1="-0.002" x2="0.5" y2="1.023" xlink:href="#linear-gradient-3"/>
    <linearGradient id="linear-gradient-5" x1="0.5" y1="-0.008" x2="0.5" y2="0.901" xlink:href="#linear-gradient-3"/>
    <linearGradient id="linear-gradient-6" x1="0.5" y1="0.033" x2="0.5" y2="0.952" xlink:href="#linear-gradient-3"/>
    <linearGradient id="linear-gradient-7" y1="-0.012" y2="0.97" xlink:href="#linear-gradient-2"/>
  </defs>
  <g id="icn" transform="translate(-549.813 -831)">
    <g id="cashback" transform="translate(549.813 831)">
      <path id="Path_25148" data-name="Path 25148" d="M135.605,311.67a3.638,3.638,0,0,0-3.919-2.309l-10.952,1.62a3.543,3.543,0,0,0-2.341-3.737l-9.025-2.958a7.723,7.723,0,0,0-4.812.013l-7.82,2.606A1.077,1.077,0,0,0,96,307.927v10.985a1.077,1.077,0,0,0,1.254,1.062l5.357-.893a2.75,2.75,0,0,1,1.693.255l5.228,2.614a7.62,7.62,0,0,0,5.854.416l17.975-5.992a3.62,3.62,0,0,0,2.244-4.7Z" transform="translate(-88.463 -275.386)" fill="url(#linear-gradient)"/>
      <rect id="Rectangle_1240" data-name="Rectangle 1240" width="9.69" height="18.303" rx="4.845" transform="translate(0 28.532)" fill="url(#linear-gradient-2)"/>
      <path id="Path_25149" data-name="Path 25149" d="M406.41,29.946a1.077,1.077,0,0,0,1.077-1.077V22.41a1.077,1.077,0,0,0-2.153,0v6.46A1.077,1.077,0,0,0,406.41,29.946Z" transform="translate(-366.573 -21.333)" fill="url(#linear-gradient-3)"/>
      <path id="Path_25150" data-name="Path 25150" d="M449.076,72.613a1.077,1.077,0,0,0,1.077-1.077v-6.46a1.077,1.077,0,1,0-2.153,0v6.46a1.077,1.077,0,0,0,1.077,1.077Z" transform="translate(-404.933 -59.693)" fill="url(#linear-gradient-4)"/>
      <path id="Path_25151" data-name="Path 25151" d="M97.077,42.667A1.077,1.077,0,0,0,96,43.744V50.2a1.077,1.077,0,1,0,2.153,0v-6.46a1.077,1.077,0,0,0-1.077-1.077Z" transform="translate(-88.463 -40.514)" fill="url(#linear-gradient-5)"/>
      <path id="Path_25152" data-name="Path 25152" d="M54.41,106.667a1.077,1.077,0,0,0-1.077,1.077v6.46a1.077,1.077,0,1,0,2.153,0v-6.46a1.077,1.077,0,0,0-1.077-1.077Z" transform="translate(-50.103 -98.054)" fill="url(#linear-gradient-6)"/>
      <path id="Path_25153" data-name="Path 25153" d="M402.965,191.338a1.076,1.076,0,0,0-1.522,0l-1.392,1.392V182.41a1.077,1.077,0,1,0-2.153,0V192.73l-1.392-1.392a1.077,1.077,0,0,0-1.522,1.523l3.23,3.23a1.076,1.076,0,0,0,1.522,0l3.23-3.23A1.076,1.076,0,0,0,402.965,191.338Z" transform="translate(-356.984 -165.183)" fill="url(#linear-gradient-7)"/>
      <g id="Page-1" transform="translate(11.292 3.206)">
        <g id="_059---Money-Bag" data-name="059---Money-Bag">
          <path id="Shape" d="M10.039,9.666V5.309C10.039,4.585,8.769,4,7.2,4s-2.837.585-2.837,1.309v4.806c-1.467.052-2.619.615-2.619,1.305V22.869C.72,23.066,0,23.533,0,24.079v2.182c0,.725,1.27,1.309,2.837,1.309s2.837-.585,2.837-1.309v-.873c0,.725,1.27,1.309,2.837,1.309s2.837-.585,2.837-1.309l.218-5.674Z" transform="translate(0 -2.254)" fill="#f29c1f"/>
          <path id="Shape-2" data-name="Shape" d="M46.729,6.958a3.9,3.9,0,0,0-2.4-1.309,2,2,0,0,0,.73-1.5,2.328,2.328,0,0,0-2.082-2.137.436.436,0,0,0-.149.86,1.474,1.474,0,0,1,1.358,1.277c0,.715-.775,1.3-1.746,1.309a2.09,2.09,0,0,1-1.087-.29.437.437,0,1,0-.454.746,2.977,2.977,0,0,0,1.528.415l.011,0c2.712,0,3.546,1.091,3.569,1.12a.437.437,0,0,0,.723-.49Z" transform="translate(-22.929 -1.129)" fill="#f3d55b"/>
          <path id="Shape-3" data-name="Shape" d="M29.3,29.014H20.928V23.777c0-.725-1.27-1.309-2.837-1.309a5.726,5.726,0,0,0-1.091.1V17.814a14.412,14.412,0,0,1,2.619-4.086v0a11.536,11.536,0,0,1,3.2-2.505v0a2.337,2.337,0,0,0,1.24.34h2.444a2.357,2.357,0,0,0,1.244-.345c.952.471,5.242,2.933,6.792,9.511C36.288,28.141,31.051,29.014,29.3,29.014Z" transform="translate(-9.58 -6.317)" fill="#a56a43"/>
          <path id="Shape-4" data-name="Shape" d="M44.626,43.365a.436.436,0,1,1,0-.873,3.756,3.756,0,0,0,2.783-1.13,3.343,3.343,0,0,0,.614-1.947A.442.442,0,0,1,48.481,39a.436.436,0,0,1,.415.457,4.19,4.19,0,0,1-.8,2.447,4.644,4.644,0,0,1-3.468,1.461Z" transform="translate(-24.902 -21.977)" fill="#fdd7ad"/>
          <path id="Shape-5" data-name="Shape" d="M34.707.511a5.422,5.422,0,0,1-1.724,4.256,1.365,1.365,0,0,1-.183.127,2.357,2.357,0,0,1-1.244.345H29.111a2.337,2.337,0,0,1-1.24-.34,1.81,1.81,0,0,1-.188-.131A5.437,5.437,0,0,1,25.96.511a.436.436,0,0,1,.6-.4c.559.236.746.764,1.593.764C29.242.873,29.242,0,30.329,0s1.091.873,2.182.873c.847,0,1.034-.533,1.593-.764a.436.436,0,0,1,.6.4Z" transform="translate(-14.629)" fill="#805333"/>
          <path id="Shape-6" data-name="Shape" d="M32.666,8.532A7.691,7.691,0,0,0,33.8,6.179a.437.437,0,0,1,.842.236,9.254,9.254,0,0,1-1.026,2.27l1.458,1.362a.437.437,0,0,1-.6.637L32.907,9.222v1.44a.436.436,0,1,1-.873,0V9.222l-1.563,1.462a.436.436,0,0,1-.3.118.447.447,0,0,1-.323-.14.439.439,0,0,1,.022-.615l1.462-1.362a9.241,9.241,0,0,1-1.03-2.27.436.436,0,0,1,.306-.537.432.432,0,0,1,.537.3,7.615,7.615,0,0,0,1.144,2.348Z" transform="translate(-16.756 -3.302)" fill="#603e26"/>
          <path id="Shape-7" data-name="Shape" d="M9.674,19.309c0,.725-1.27,1.309-2.837,1.309S4,20.034,4,19.309C4,18.62,5.152,18.057,6.619,18c.074,0,.144,0,.218,0C8.4,18,9.674,18.585,9.674,19.309Z" transform="translate(-2.254 -10.143)" fill="#f0c419"/>
          <path id="Shape-8" data-name="Shape" d="M15.674,7v4.356a14.411,14.411,0,0,0-2.619,4.086V13.111c0-.725-1.27-1.309-2.837-1.309-.074,0-.144,0-.218,0V7c0,.725,1.27,1.309,2.837,1.309S15.674,7.725,15.674,7Z" transform="translate(-5.635 -3.945)" fill="#e57e25"/>
          <path id="Shape-9" data-name="Shape" d="M5.674,48.309c0,.725-1.27,1.309-2.837,1.309S0,49.034,0,48.309C0,47.764.72,47.3,1.746,47.1A5.726,5.726,0,0,1,2.837,47C4.4,47,5.674,47.585,5.674,48.309Z" transform="translate(0 -26.485)" fill="#f9eab0"/>
          <path id="Shape-10" data-name="Shape" d="M5.674,50v2.182c0,.725-1.27,1.309-2.837,1.309S0,52.907,0,52.182V50c0,.725,1.27,1.309,2.837,1.309S5.674,50.725,5.674,50Z" transform="translate(0 -28.176)" fill="#f3d55b"/>
          <path id="Shape-11" data-name="Shape" d="M18.674,38.309c0,.725-1.27,1.309-2.837,1.309S13,39.034,13,38.309c0-.546.72-1.013,1.746-1.209a5.726,5.726,0,0,1,1.091-.1C17.4,37,18.674,37.585,18.674,38.309Z" transform="translate(-7.326 -20.85)" fill="#f3d55b"/>
          <path id="Shape-12" data-name="Shape" d="M18.674,40v5.674c0,.725-1.27,1.309-2.837,1.309S13,46.4,13,45.674V40c0,.725,1.27,1.309,2.837,1.309S18.674,40.725,18.674,40Z" transform="translate(-7.326 -22.54)" fill="#f0c419"/>
        </g>
      </g>
    </g>
  </g>
</svg>
