<svg id="Group_18306" data-name="Group 18306" xmlns="http://www.w3.org/2000/svg" width="93.03" height="86.211" viewBox="0 0 93.03 86.211">
  <path id="Path_8323" data-name="Path 8323" d="M514.885,420.8a21.2,21.2,0,0,1-1.648,3.825c-1.626,2.392-4.115,3.314-6.969,3.332-2.538.016-5.077,0-7.734,0v1.013c0,4.07.015,8.141-.007,12.211a2.7,2.7,0,0,1-3.694,2.744,4.776,4.776,0,0,1-1.435-1.063q-7.234-7.134-14.431-14.3a1.93,1.93,0,0,0-1.506-.614q-10.49.03-20.981.013h-1.16c.283-.308.439-.505.622-.674,1.482-1.369,2.986-2.716,4.445-4.108a2,2,0,0,1,1.517-.595q14.124.028,28.247.007a13.551,13.551,0,0,0,13.52-10.6,15.639,15.639,0,0,0,.32-3.471q.032-19.3.013-38.609v-1.054c5.386-.859,9.841,1.639,10.75,6.712a1.788,1.788,0,0,0,.13.332Z" transform="translate(-421.855 -357.929)" fill="#130708"/>
  <path id="Path_8324" data-name="Path 8324" d="M324.327,380.054c-2.688,0-5.257.012-7.826,0a8.267,8.267,0,0,1-6.911-3.312,7.964,7.964,0,0,1-1.609-4.949q-.015-21.372.007-42.744c.012-4.892,3.614-8.26,8.692-8.261q27.3-.008,54.594,0c1.635,0,3.271-.013,4.905,0a8.161,8.161,0,0,1,8.463,8.405c.021,3.921,0,7.843,0,11.764q0,15.266,0,30.533c0,3.47-1.412,6.2-4.649,7.679a10.324,10.324,0,0,1-4.113.85c-9.84.07-19.682.052-29.523.02a4.114,4.114,0,0,0-3.137,1.289q-6.868,6.863-13.817,13.645a4.435,4.435,0,0,1-2.056,1.18c-1.639.333-3.007-1.032-3.016-2.877-.019-4.041-.006-8.082-.006-12.123Zm22.087-32.33H322.359c-.333,0-.668-.014-1,.018a2.674,2.674,0,0,0-2.232,3.769,2.918,2.918,0,0,0,2.98,1.61q24.191-.021,48.382-.01a5.831,5.831,0,0,0,.816-.024,2.642,2.642,0,0,0,2.245-1.72c.723-1.856-.644-3.638-2.811-3.64Q358.577,347.715,346.414,347.724Zm-5.57-10.777H322.33a9.931,9.931,0,0,0-1,.02,2.724,2.724,0,0,0-2.436,2.4,2.636,2.636,0,0,0,1.9,2.813,4.882,4.882,0,0,0,1.34.151q18.741.011,37.482.005a5.979,5.979,0,0,0,.725-.018,2.64,2.64,0,0,0,2.315-1.753,2.687,2.687,0,0,0-2.756-3.611Q350.373,336.934,340.844,336.948ZM335.505,358.5c-4.6,0-9.194-.011-13.791.006a2.691,2.691,0,1,0-.054,5.378c.272.01.544,0,.816,0H346.52c.907,0,1.816.025,2.722-.011a2.612,2.612,0,0,0,2.508-1.742,2.682,2.682,0,0,0-2.726-3.63C344.518,358.49,340.012,358.5,335.505,358.5Z" transform="translate(-307.967 -320.778)" fill="#ee4e5e"/>
</svg>
