<svg xmlns="http://www.w3.org/2000/svg" width="24.555" height="23.019" viewBox="0 0 24.555 23.019">
  <g id="Group_11414" data-name="Group 11414" transform="translate(0 0)">
    <path id="Path_8323" data-name="Path 8323" d="M471.042,382.6a5.688,5.688,0,0,1-.435,1.021,2.088,2.088,0,0,1-1.839.889c-.67,0-1.34,0-2.042,0v.271c0,1.087,0,2.174,0,3.26a.714.714,0,0,1-.975.733,1.264,1.264,0,0,1-.379-.284q-1.91-1.9-3.809-3.819a.506.506,0,0,0-.4-.164c-1.846.005-3.692,0-5.538,0h-.306c.075-.082.116-.135.164-.18.391-.366.788-.725,1.173-1.1a.525.525,0,0,1,.4-.159q3.728.007,7.456,0a3.585,3.585,0,0,0,3.569-2.831,4.225,4.225,0,0,0,.084-.927q.008-5.154,0-10.309v-.282a2.274,2.274,0,0,1,2.838,1.792.48.48,0,0,0,.034.089Z" transform="translate(-446.487 -365.813)"/>
    <path id="Path_8324" data-name="Path 8324" d="M312.285,336.6c-.709,0-1.388,0-2.066,0a2.173,2.173,0,0,1-1.824-.884,2.142,2.142,0,0,1-.425-1.321q0-5.706,0-11.413a2.157,2.157,0,0,1,2.294-2.206q7.205,0,14.41,0c.431,0,.863,0,1.295,0a2.166,2.166,0,0,1,2.234,2.244c.006,1.047,0,2.094,0,3.141q0,4.076,0,8.152a2.081,2.081,0,0,1-1.227,2.05,2.7,2.7,0,0,1-1.086.227c-2.6.019-5.195.014-7.792.005a1.08,1.08,0,0,0-.828.344q-1.813,1.832-3.647,3.643a1.168,1.168,0,0,1-.543.315.7.7,0,0,1-.8-.768c0-1.079,0-2.158,0-3.237Zm5.83-8.632h-6.349c-.088,0-.176,0-.263,0a.714.714,0,0,0-.589,1.006.769.769,0,0,0,.787.43q6.385-.006,12.77,0a1.51,1.51,0,0,0,.215-.006.7.7,0,0,0,.593-.459.719.719,0,0,0-.742-.972Q321.326,327.97,318.115,327.973Zm-1.47-2.877h-4.887a2.592,2.592,0,0,0-.263.005.723.723,0,0,0-.643.64.7.7,0,0,0,.5.751,1.278,1.278,0,0,0,.354.04q4.947,0,9.893,0a1.557,1.557,0,0,0,.191,0,.7.7,0,0,0,.611-.468.716.716,0,0,0-.728-.964Q319.16,325.091,316.645,325.1Zm-1.409,5.755c-1.213,0-2.427,0-3.64,0a.718.718,0,1,0-.014,1.436c.072,0,.144,0,.216,0h6.346c.24,0,.479.007.718,0a.689.689,0,0,0,.662-.465.715.715,0,0,0-.719-.969C317.615,330.847,316.425,330.85,315.236,330.85Z" transform="translate(-307.967 -320.778)"/>
  </g>
</svg>
