<svg id="fb" xmlns="http://www.w3.org/2000/svg" width="30.516" height="31.5" viewBox="0 0 30.516 31.5">
  <path id="Path_22178" data-name="Path 22178" d="M5.906,0h18.7a5.906,5.906,0,0,1,5.906,5.906V25.594A5.906,5.906,0,0,1,24.609,31.5H5.906A5.906,5.906,0,0,1,0,25.594V5.906A5.906,5.906,0,0,1,5.906,0Z" fill="#fff"/>
  <path id="facebook_1_" data-name="facebook (1)" d="M13.385,2.924h1.608V.124A20.758,20.758,0,0,0,12.65,0C10.332,0,8.745,1.458,8.745,4.137V6.6H6.187v3.13H8.745v7.875H11.88V9.734h2.454l.39-3.13H11.88V4.448c0-.9.244-1.524,1.5-1.524Z" transform="translate(4.492 6.713)" fill="#007bb5"/>
</svg>
