<svg xmlns="http://www.w3.org/2000/svg" width="30" height="31" viewBox="0 0 30 31">
  <g id="Group_18832" data-name="Group 18832" transform="translate(-189 0)">
    <g id="youtubr" transform="translate(188.586)">
      <rect id="Rectangle_979" data-name="Rectangle 979" width="30" height="31" rx="6" transform="translate(0.414 0)" fill="#fff"/>
    </g>
    <g id="pinterest" transform="translate(193.331 4.83)">
      <circle id="Ellipse_2010" data-name="Ellipse 2010" cx="10.668" cy="10.668" r="10.668" transform="translate(0.001 0.002)" fill="#cb2027"/>
      <g id="Group_18831" data-name="Group 18831" transform="translate(5.515 4.678)">
        <path id="Path_23944" data-name="Path 23944" d="M35.014,34.2a3.607,3.607,0,0,1-1.778-.846c-.348,1.824-.772,3.572-2.031,4.485-.389-2.757.57-4.827,1.015-7.025-.759-1.278.091-3.85,1.692-3.216,1.971.779-1.706,4.752.762,5.248,2.577.518,3.629-4.471,2.031-6.094-2.309-2.343-6.721-.053-6.178,3.3.132.82.98,1.069.338,2.2-1.478-.327-1.919-1.493-1.862-3.047a4.973,4.973,0,0,1,4.486-4.571c2.783-.311,5.4,1.022,5.756,3.64.406,2.955-1.256,6.154-4.232,5.924Z" transform="translate(-29 -24.593)" fill="#f1f2f2"/>
      </g>
    </g>
  </g>
</svg>
